<?xml version="1.0" encoding="UTF-8"?>
<svg id="Layer_2" data-name="Layer 2" xmlns="http://www.w3.org/2000/svg" viewBox="0 0 589.64 501.14">
  <defs>
    <style>
      .cls-1 {
        fill: #e04c4c;
      }

      .cls-2 {
        fill: #e56161;
      }

      .cls-3 {
        fill: #a54e42;
      }

      .cls-4 {
        fill: #ed5d15;
      }

      .cls-5 {
        fill: #a32e0a;
      }

      .cls-6 {
        fill: #c66a6a;
      }

      .cls-7 {
        fill: #c96363;
      }

      .cls-8, .cls-9 {
        font-family: Geneva, Geneva;
        font-size: 120.82px;
      }

      .cls-8, .cls-10 {
        fill: #57030a;
      }

      .cls-9, .cls-11 {
        fill: #890e0e;
      }

      .cls-12 {
        fill: #e0431e;
      }
    </style>
  </defs>
  <g id="Layer_1-2" data-name="Layer 1">
    <path class="cls-11" d="M328.26,42.17l-50.06.56c-1.57-3.34-7.45-41.25-5.37-41.58l43.89,3.06c5.01-.17,10.03.12,15.03-.05,4.53-.15,20.66-2.79,23.49-1.47.71.33,8.67,7.23,9.07,7.93,1.57,2.75,1.11,7.72.94,11.04-.7,13.69-3.41,29.21-4.98,43.02-.32,2.8.05,14.63-1.94,16.06l-71.4,2.27c-3.35-1.12-3.39-15.08-4.67-18.83,8.24-1.16,16.53,1.72,24.46,2.04,7.39.3,14.19-1.51,21.54-1.04v-23Z"/>
    <path class="cls-7" d="M45.41,206.94l-1.35-1.65c-.44-4.76-3.06-34.82-5.68-35.35-5.92,2.17-12.05,4.43-18.22,5.75-3.2.69-15.99,3.37-17.76,1.25-.57-.69-2.62-6.35-2.38-7.31,17.34-12.74,36.52-24.93,45.9-45.18,1.45-3.12,3.33-13.2,6.5-13.58,8.75.54,17.36,2.13,26,3.05,2.89.31,21.22.08,21.46,3.51-6.59,11.84-15.03,22.84-25.51,31.48-4.44,3.66-9.74,6.24-14.2,9.74-.82.64-1.83-.04-1.27,2.29h16l-4,46h-25.5Z"/>
    <path class="cls-12" d="M335.77,156.8c-5.77.13-11.62.33-17.4.18-3.34-.08-10.11-2.84-12.56.36l-5.95,46.55-7.31-.09-8.09-46.9c-1.7-2.43-28.59,1.6-33.44-.06l-6.1-33.9c1.54-1.55,29.16,4.07,33.05,1.54,3.51-2.28-5.73-16.7-3.62-19.61l1.23-.78,36.71.99,1.24,1.91c-.36,2.97-4.55,15.21-3.19,17,1.11,1.46,4.16.48,5.61,1.42.82.54,2.01,4.72,3.57,6.43,2.49,2.72,7.2,4.85,10.85,5.14,2.45.2,9.01-1.48,9.5.55l-4.09,19.26Z"/>
    <path class="cls-4" d="M226.25,55.18c8.82,3.09,22.12-10.18,26.86.32-8.85,15.78-30.28,24.78-47.47,27.55-1.56.25-7.18,1.37-7.92.17l-1.53-81.62,31.64,1.54-1.58,52.04Z"/>
    <path class="cls-5" d="M129.91,167.95c13.52-1.23,26.16-1.78,39.26-6.25,16.22-5.54,27.79-15.86,36.75-30.25,2.73-4.39,5.42-17.08,11.5-11.52,3.25,34.22-17.55,60.8-45.84,77.18-3.04,1.76-15.1,8.76-17.66,7.39l-23.49-33.58-.51-2.97Z"/>
    <path class="cls-4" d="M378.56,141.09l75.05.55,2.24,2.7-2.38,31.65-71.93.87c-2.02-.67-3.39-13.74-3.62-16.44-.37-4.16.11-8.72-.01-12.98-.06-2.11-2.37-5.39.66-6.36Z"/>
    <path class="cls-10" d="M550.9,117.93l38.06,1.44c1.96,1.36-.93,12.97-1.52,15.6-6.14,27.36-20.4,51.54-46.69,63.31-3.92,1.76-10.7,5.87-11.69-.1-.92-5.59,7.54-10.54,10.66-14.93,9.64-13.54,14.51-34.27,13.17-50.81-.38-4.72-3.05-9.38-2-14.51Z"/>
    <path class="cls-3" d="M57.84,59.75c-4.71,5.84-25.63,26.05-32.88,24.27-6.48-1.59,1.18-10.52,2.65-14,6.62-15.65,9.6-32.27,7.54-49.24-.31-2.53-3.8-11-1.94-12.14,6.75-1.8,14.07.39,20.5.58s14.27-.85,20.09-.09,4.2,6.48,3.21,11.3c-2.63,12.71-11.05,29.23-19.17,39.32Z"/>
    <path class="cls-12" d="M151.26,1.18c6.82-2.51,13.83-.3,20.46.03,4.04.2,15.49-1.23,17.65,1.38.8.97.12,10.9-.19,13-3.14,21.79-15.24,49.34-32.4,63.6-4.42,3.67-11.28,10.05-14.36,1.69,14.22-23.39,16.54-53.68,8.83-79.7Z"/>
    <path class="cls-2" d="M178.86,149.88l-48.01.61-6.5-33.57,57.61-.51c1.66.95-2.95,29.26-3.1,33.48Z"/>
    <path class="cls-1" d="M111.07,21.37c1.68.98,8.39,18.23,9.21,21.28,1.92,7.15,5.98,28.6,3.82,34.86-.54,1.58-5.97,4.61-7.38,2.75-11.72-16.78-26.53-30.76-41.44-44.59.03-1.7,28.12-13.22,30.95-14.02,1.41-.4,3.55-1.02,4.84-.28Z"/>
    <path class="cls-6" d="M491.41,117.94h25l1.5,2.5,2.76,37.04c-.19.77-.73,1.04-1.43,1.28-2.3.78-19.12,2.66-20.4,1.74l-8.81-40.91,1.38-1.65Z"/>
    <path class="cls-1" d="M523.91,158.94l-2.84-39.83c.72-.15,1.97-1.17,2.34-1.17h22c3.55,5.87.78,14.92.46,21.46s1.49,14.37-1.46,19.54h-20.5Z"/>
    <path class="cls-3" d="M252.91,163.44c.15-.49,1.1-1.18,1.66-1.36,3.97-1.28,24.53,4.07,29.28,6.43-3.36,11.06-10.96,21.83-20.6,28.27-3.25,2.17-13.61,8.74-14.38.62-.06-.61,2.1-8.6,2.49-10.5.2-.97,1.55-2.15,1.55-2.45,0-4.29-.87-18.21,0-21Z"/>
    <path class="cls-5" d="M337.81,161.04c2.56,10.49,5.6,22.57,4.14,33.44-.45,3.32-3.28,5.57-6.6,5.4-3.01-.16-11.27-13.87-13.94-16.95-1.69-1.95-16.25-14.5-14.51-15.98l30.9-5.9Z"/>
    <text class="cls-9" transform="translate(25.36 321.57)"><tspan x="0" y="0">HARUKO</tspan></text>
    <text class="cls-8" transform="translate(24.01 424.04)"><tspan x="0" y="0">IMPORTS</tspan></text>
  </g>
</svg>