<?xml version="1.0" encoding="UTF-8"?>
<svg id="Layer_2" data-name="Layer 2" xmlns="http://www.w3.org/2000/svg" viewBox="0 0 1533.56 494.11">
  <defs>
    <style>
      .cls-1 {
        fill: #e04c4c;
      }

      .cls-2 {
        fill: #f4eaeb;
      }

      .cls-2, .cls-3 {
        font-family: Geneva, Geneva;
        font-size: 164.24px;
      }

      .cls-4 {
        fill: #e56161;
      }

      .cls-5 {
        fill: #a54e42;
      }

      .cls-6 {
        fill: #160804;
        stroke: #c66a6a;
        stroke-miterlimit: 10;
        stroke-width: 7px;
      }

      .cls-7 {
        fill: #ed5d15;
      }

      .cls-3 {
        fill: #e82b05;
      }

      .cls-8 {
        fill: #a32e0a;
      }

      .cls-9 {
        fill: #c66a6a;
      }

      .cls-10 {
        fill: #c96363;
      }

      .cls-11 {
        fill: #e0431e;
      }

      .cls-12 {
        fill: #890e0e;
      }

      .cls-13 {
        fill: #57030a;
      }
    </style>
  </defs>
  <g id="Layer_1-2" data-name="Layer 1">
    <g>
      <rect class="cls-6" x="3.5" y="3.5" width="1526.56" height="487.11"/>
      <g>
        <path class="cls-12" d="M514.32,151.62l-69.8.78c-2.2-4.66-10.4-57.52-7.49-57.97l61.2,4.27c6.98-.24,13.98.16,20.96-.07,6.32-.21,28.82-3.89,32.76-2.05.99.46,12.1,10.09,12.65,11.06,2.18,3.84,1.54,10.76,1.31,15.4-.97,19.09-4.75,40.74-6.95,59.98-.45,3.9.06,20.41-2.7,22.4l-99.57,3.16c-4.67-1.57-4.72-21.02-6.51-26.26,11.49-1.61,23.05,2.39,34.11,2.84,10.31.42,19.79-2.11,30.04-1.45v-32.07Z"/>
        <path class="cls-10" d="M690.8,219.95l-1.88-2.3c-.62-6.64-4.27-48.56-7.92-49.29-8.26,3.03-16.8,6.18-25.41,8.02-4.46.96-22.3,4.7-24.76,1.74-.8-.96-3.66-8.85-3.32-10.19,24.17-17.76,50.93-34.76,64-63,2.02-4.35,4.64-18.41,9.07-18.93,12.2.76,24.21,2.97,36.25,4.25,4.03.43,29.59.12,29.93,4.89-9.19,16.51-20.96,31.85-35.57,43.89-6.19,5.1-13.59,8.7-19.81,13.58-1.14.89-2.55-.06-1.76,3.19h22.31l-5.58,64.14h-35.56Z"/>
        <path class="cls-11" d="M1095.69,150.03c-8.04.18-16.21.45-24.26.25-4.66-.12-14.1-3.96-17.51.5l-8.3,64.91-10.2-.12-11.29-65.41c-2.38-3.39-39.86,2.24-46.64-.08l-8.51-47.27c2.14-2.16,40.67,5.67,46.09,2.15,4.9-3.18-7.99-23.29-5.05-27.35l1.71-1.09,51.19,1.39,1.73,2.66c-.51,4.14-6.34,21.21-4.44,23.71,1.55,2.03,5.81.67,7.82,1.99,1.15.75,2.8,6.58,4.98,8.96,3.47,3.79,10.04,6.77,15.13,7.17,3.42.27,12.56-2.07,13.25.77l-5.7,26.86Z"/>
        <path class="cls-7" d="M372.08,169.76c12.29,4.32,30.85-14.19,37.46.45-12.34,22.01-42.22,34.55-66.2,38.42-2.17.35-10.01,1.91-11.05.23l-2.13-113.82,44.12,2.15-2.21,72.56Z"/>
        <path class="cls-8" d="M808.64,165.58c18.86-1.72,36.48-2.49,54.74-8.72,22.62-7.72,38.76-22.12,51.25-42.18,3.81-6.11,7.56-23.82,16.04-16.07,4.53,47.72-24.47,84.79-63.92,107.63-4.24,2.46-21.06,12.22-24.63,10.3l-32.76-46.83-.71-4.14Z"/>
        <path class="cls-7" d="M1155.37,128.13l104.65.77,3.13,3.77-3.32,44.14-100.3,1.21c-2.82-.93-4.72-19.16-5.05-22.93-.51-5.8.16-12.16-.02-18.1-.09-2.94-3.31-7.51.92-8.86Z"/>
        <path class="cls-13" d="M1395.69,95.84l53.07,2.01c2.73,1.9-1.3,18.09-2.12,21.75-8.56,38.15-28.45,71.87-65.1,88.29-5.47,2.45-14.92,8.19-16.3-.14-1.29-7.8,10.51-14.7,14.86-20.82,13.45-18.89,20.24-47.79,18.37-70.85-.53-6.58-4.26-13.07-2.78-20.24Z"/>
        <path class="cls-5" d="M137.23,176.13c-6.56,8.15-35.73,36.32-45.85,33.85-9.04-2.21,1.64-14.67,3.7-19.52,9.23-21.83,13.39-45,10.52-68.67-.43-3.53-5.3-15.34-2.71-16.93,9.41-2.5,19.62.54,28.59.8,8.67.25,19.9-1.18,28.01-.12,8.5,1.11,5.86,9.04,4.47,15.76-3.67,17.72-15.4,40.77-26.74,54.84Z"/>
        <path class="cls-11" d="M267.5,94.46c9.51-3.5,19.29-.42,28.53.04,5.63.28,21.6-1.72,24.61,1.93,1.12,1.35.16,15.19-.26,18.13-4.37,30.38-21.25,68.81-45.18,88.69-6.16,5.12-15.72,14.02-20.02,2.35,19.84-32.61,23.06-74.86,12.32-111.14Z"/>
        <path class="cls-4" d="M876.89,140.39l-66.94.85-9.06-46.82,80.33-.72c2.31,1.33-4.12,40.81-4.33,46.68Z"/>
        <path class="cls-1" d="M211.46,122.62c2.35,1.37,11.7,25.42,12.84,29.68,2.68,9.97,8.34,39.88,5.33,48.61-.76,2.21-8.33,6.43-10.29,3.84-16.34-23.4-37-42.89-57.79-62.18.04-2.37,39.21-18.43,43.16-19.55,1.96-.56,4.96-1.43,6.74-.39Z"/>
        <path class="cls-9" d="M1312.72,95.84h34.86l2.09,3.49,3.84,51.66c-.26,1.08-1.01,1.45-1.99,1.78-3.21,1.09-26.66,3.71-28.44,2.43l-12.28-57.05,1.92-2.31Z"/>
        <path class="cls-1" d="M1358.04,153.02l-3.96-55.54c1-.21,2.75-1.63,3.26-1.63h30.68c4.94,8.19,1.08,20.8.64,29.92-.42,8.69,2.08,20.04-2.03,27.25h-28.59Z"/>
        <path class="cls-5" d="M980.15,159.29c.21-.68,1.53-1.65,2.32-1.9,5.53-1.78,34.2,5.68,40.83,8.97-4.68,15.42-15.28,30.43-28.72,39.42-4.54,3.03-18.98,12.19-20.05.86-.08-.85,2.93-12,3.48-14.65.28-1.35,2.16-2.99,2.16-3.42,0-5.98-1.22-25.39,0-29.28Z"/>
        <path class="cls-8" d="M1098.55,155.95c3.57,14.63,7.81,31.47,5.77,46.64-.62,4.63-4.58,7.76-9.2,7.52-4.2-.22-15.71-19.34-19.44-23.64-2.35-2.72-22.65-20.22-20.23-22.29l43.09-8.23Z"/>
      </g>
      <text class="cls-3" transform="translate(75.95 381.71)"><tspan x="0" y="0">HARUKO</tspan></text>
      <text class="cls-2" transform="translate(759.98 381.71)"><tspan x="0" y="0">IMPORTS</tspan></text>
    </g>
  </g>
</svg>