<?xml version="1.0" encoding="UTF-8"?>
<svg id="Layer_2" data-name="Layer 2" xmlns="http://www.w3.org/2000/svg" viewBox="0 0 693.3 707.72">
  <defs>
    <style>
      .cls-1 {
        fill: #e04c4c;
      }

      .cls-2 {
        fill: #e56161;
      }

      .cls-3 {
        fill: #a54e42;
      }

      .cls-4 {
        fill: #efdfdf;
      }

      .cls-5 {
        fill: #ed5d15;
      }

      .cls-6 {
        fill: #a32e0a;
      }

      .cls-7 {
        fill: #c66a6a;
      }

      .cls-8 {
        fill: #c96363;
      }

      .cls-9 {
        fill: #e0431e;
      }

      .cls-10 {
        fill: #890e0e;
      }

      .cls-11 {
        fill: #57030a;
      }

      .cls-12 {
        fill: #a8978f;
      }
    </style>
  </defs>
  <g id="v2">
    <circle class="cls-3" cx="52.14" cy="52.14" r="52.14"/>
    <path class="cls-12" d="M169.69,8c24.34,0,44.14,19.8,44.14,44.14s-19.8,44.14-44.14,44.14-44.14-19.8-44.14-44.14,19.8-44.14,44.14-44.14M169.69,0C140.89,0,117.55,23.34,117.55,52.14s23.34,52.14,52.14,52.14,52.14-23.34,52.14-52.14S198.48,0,169.69,0h0Z"/>
    <path class="cls-12" d="M287.24,8c24.34,0,44.14,19.8,44.14,44.14s-19.8,44.14-44.14,44.14-44.14-19.8-44.14-44.14,19.8-44.14,44.14-44.14M287.24,0C258.44,0,235.1,23.34,235.1,52.14s23.34,52.14,52.14,52.14,52.14-23.34,52.14-52.14S316.03,0,287.24,0h0Z"/>
    <path class="cls-12" d="M404.79,8c24.34,0,44.14,19.8,44.14,44.14s-19.8,44.14-44.14,44.14-44.14-19.8-44.14-44.14,19.8-44.14,44.14-44.14M404.79,0C376,0,352.65,23.34,352.65,52.14s23.34,52.14,52.14,52.14,52.14-23.34,52.14-52.14S433.59,0,404.79,0h0Z"/>
    <circle class="cls-1" cx="52.14" cy="172.83" r="52.14"/>
    <path class="cls-12" d="M169.69,127.69c24.89,0,45.14,20.25,45.14,45.14s-20.25,45.14-45.14,45.14-45.14-20.25-45.14-45.14,20.25-45.14,45.14-45.14M169.69,120.69c-28.79,0-52.14,23.34-52.14,52.14s23.34,52.14,52.14,52.14,52.14-23.34,52.14-52.14-23.34-52.14-52.14-52.14h0Z"/>
    <path class="cls-12" d="M287.24,127.69c24.89,0,45.14,20.25,45.14,45.14s-20.25,45.14-45.14,45.14-45.14-20.25-45.14-45.14,20.25-45.14,45.14-45.14M287.24,120.69c-28.79,0-52.14,23.34-52.14,52.14s23.34,52.14,52.14,52.14,52.14-23.34,52.14-52.14-23.34-52.14-52.14-52.14h0Z"/>
    <path class="cls-12" d="M404.79,127.69c24.89,0,45.14,20.25,45.14,45.14s-20.25,45.14-45.14,45.14-45.14-20.25-45.14-45.14,20.25-45.14,45.14-45.14M404.79,120.69c-28.79,0-52.14,23.34-52.14,52.14s23.34,52.14,52.14,52.14,52.14-23.34,52.14-52.14-23.34-52.14-52.14-52.14h0Z"/>
    <circle class="cls-11" cx="52.14" cy="293.52" r="52.14"/>
    <circle class="cls-1" cx="169.69" cy="293.52" r="52.14"/>
    <circle class="cls-2" cx="287.24" cy="293.52" r="52.14"/>
    <path class="cls-12" d="M404.79,248.38c24.89,0,45.14,20.25,45.14,45.14s-20.25,45.14-45.14,45.14-45.14-20.25-45.14-45.14,20.25-45.14,45.14-45.14M404.79,241.38c-28.79,0-52.14,23.34-52.14,52.14s23.34,52.14,52.14,52.14,52.14-23.34,52.14-52.14-23.34-52.14-52.14-52.14h0Z"/>
    <circle class="cls-6" cx="52.14" cy="414.2" r="52.14"/>
    <path class="cls-12" d="M169.69,369.07c24.89,0,45.14,20.25,45.14,45.14s-20.25,45.14-45.14,45.14-45.14-20.25-45.14-45.14,20.25-45.14,45.14-45.14M169.69,362.07c-28.79,0-52.14,23.34-52.14,52.14s23.34,52.14,52.14,52.14,52.14-23.34,52.14-52.14-23.34-52.14-52.14-52.14h0Z"/>
    <path class="cls-12" d="M287.24,369.07c24.89,0,45.14,20.25,45.14,45.14s-20.25,45.14-45.14,45.14-45.14-20.25-45.14-45.14,20.25-45.14,45.14-45.14M287.24,362.07c-28.79,0-52.14,23.34-52.14,52.14s23.34,52.14,52.14,52.14,52.14-23.34,52.14-52.14-23.34-52.14-52.14-52.14h0Z"/>
    <circle class="cls-7" cx="404.79" cy="414.2" r="52.14"/>
    <circle class="cls-9" cx="52.14" cy="534.89" r="52.14"/>
    <path class="cls-12" d="M169.69,489.76c24.89,0,45.14,20.25,45.14,45.14s-20.25,45.14-45.14,45.14-45.14-20.25-45.14-45.14,20.25-45.14,45.14-45.14M169.69,482.76c-28.79,0-52.14,23.34-52.14,52.14s23.34,52.14,52.14,52.14,52.14-23.34,52.14-52.14-23.34-52.14-52.14-52.14h0Z"/>
    <path class="cls-12" d="M287.24,489.76c24.89,0,45.14,20.25,45.14,45.14s-20.25,45.14-45.14,45.14-45.14-20.25-45.14-45.14,20.25-45.14,45.14-45.14M287.24,482.76c-28.79,0-52.14,23.34-52.14,52.14s23.34,52.14,52.14,52.14,52.14-23.34,52.14-52.14-23.34-52.14-52.14-52.14h0Z"/>
    <circle class="cls-8" cx="404.79" cy="534.89" r="52.14"/>
    <circle class="cls-10" cx="52.14" cy="655.58" r="52.14"/>
    <path class="cls-12" d="M169.69,610.44c24.89,0,45.14,20.25,45.14,45.14s-20.25,45.14-45.14,45.14-45.14-20.25-45.14-45.14,20.25-45.14,45.14-45.14M169.69,603.44c-28.79,0-52.14,23.34-52.14,52.14s23.34,52.14,52.14,52.14,52.14-23.34,52.14-52.14-23.34-52.14-52.14-52.14h0Z"/>
    <path class="cls-12" d="M287.24,610.44c24.89,0,45.14,20.25,45.14,45.14s-20.25,45.14-45.14,45.14-45.14-20.25-45.14-45.14,20.25-45.14,45.14-45.14M287.24,603.44c-28.79,0-52.14,23.34-52.14,52.14s23.34,52.14,52.14,52.14,52.14-23.34,52.14-52.14-23.34-52.14-52.14-52.14h0Z"/>
    <circle class="cls-5" cx="404.79" cy="655.58" r="52.14"/>
    <g>
      <path class="cls-12" d="M522.34,7c24.89,0,45.14,20.25,45.14,45.14s-20.25,45.14-45.14,45.14-45.14-20.25-45.14-45.14,20.25-45.14,45.14-45.14M522.34,0c-28.79,0-52.14,23.34-52.14,52.14s23.34,52.14,52.14,52.14,52.14-23.34,52.14-52.14S551.14,0,522.34,0h0Z"/>
      <path class="cls-12" d="M522.34,127.69c24.89,0,45.14,20.25,45.14,45.14s-20.25,45.14-45.14,45.14-45.14-20.25-45.14-45.14,20.25-45.14,45.14-45.14M522.34,120.69c-28.79,0-52.14,23.34-52.14,52.14s23.34,52.14,52.14,52.14,52.14-23.34,52.14-52.14-23.34-52.14-52.14-52.14h0Z"/>
      <path class="cls-12" d="M522.34,248.38c24.89,0,45.14,20.25,45.14,45.14s-20.25,45.14-45.14,45.14-45.14-20.25-45.14-45.14,20.25-45.14,45.14-45.14M522.34,241.38c-28.79,0-52.14,23.34-52.14,52.14s23.34,52.14,52.14,52.14,52.14-23.34,52.14-52.14-23.34-52.14-52.14-52.14h0Z"/>
      <path class="cls-12" d="M522.34,369.07c24.89,0,45.14,20.25,45.14,45.14s-20.25,45.14-45.14,45.14-45.14-20.25-45.14-45.14,20.25-45.14,45.14-45.14M522.34,362.07c-28.79,0-52.14,23.34-52.14,52.14s23.34,52.14,52.14,52.14,52.14-23.34,52.14-52.14-23.34-52.14-52.14-52.14h0Z"/>
      <path class="cls-12" d="M522.34,489.76c24.89,0,45.14,20.25,45.14,45.14s-20.25,45.14-45.14,45.14-45.14-20.25-45.14-45.14,20.25-45.14,45.14-45.14M522.34,482.76c-28.79,0-52.14,23.34-52.14,52.14s23.34,52.14,52.14,52.14,52.14-23.34,52.14-52.14-23.34-52.14-52.14-52.14h0Z"/>
      <path class="cls-12" d="M522.34,610.44c24.89,0,45.14,20.25,45.14,45.14s-20.25,45.14-45.14,45.14-45.14-20.25-45.14-45.14,20.25-45.14,45.14-45.14M522.34,603.44c-28.79,0-52.14,23.34-52.14,52.14s23.34,52.14,52.14,52.14,52.14-23.34,52.14-52.14-23.34-52.14-52.14-52.14h0Z"/>
    </g>
    <path class="cls-12" d="M641.16,8c24.34,0,44.14,19.8,44.14,44.14s-19.8,44.14-44.14,44.14-44.14-19.8-44.14-44.14,19.8-44.14,44.14-44.14M641.16,0C612.37,0,589.03,23.34,589.03,52.14s23.34,52.14,52.14,52.14,52.14-23.34,52.14-52.14S669.96,0,641.16,0h0Z"/>
    <path class="cls-12" d="M641.16,127.69c24.89,0,45.14,20.25,45.14,45.14s-20.25,45.14-45.14,45.14-45.14-20.25-45.14-45.14,20.25-45.14,45.14-45.14M641.16,120.69c-28.79,0-52.14,23.34-52.14,52.14s23.34,52.14,52.14,52.14,52.14-23.34,52.14-52.14-23.34-52.14-52.14-52.14h0Z"/>
    <circle class="cls-4" cx="641.16" cy="293.52" r="52.14"/>
    <path class="cls-7" d="M641.16,369.07c24.89,0,45.14,20.25,45.14,45.14s-20.25,45.14-45.14,45.14-45.14-20.25-45.14-45.14,20.25-45.14,45.14-45.14M641.16,362.07c-28.79,0-52.14,23.34-52.14,52.14s23.34,52.14,52.14,52.14,52.14-23.34,52.14-52.14-23.34-52.14-52.14-52.14h0Z"/>
    <path class="cls-7" d="M641.16,489.76c24.89,0,45.14,20.25,45.14,45.14s-20.25,45.14-45.14,45.14-45.14-20.25-45.14-45.14,20.25-45.14,45.14-45.14M641.16,482.76c-28.79,0-52.14,23.34-52.14,52.14s23.34,52.14,52.14,52.14,52.14-23.34,52.14-52.14-23.34-52.14-52.14-52.14h0Z"/>
    <path class="cls-7" d="M641.16,610.44c24.89,0,45.14,20.25,45.14,45.14s-20.25,45.14-45.14,45.14-45.14-20.25-45.14-45.14,20.25-45.14,45.14-45.14M641.16,603.44c-28.79,0-52.14,23.34-52.14,52.14s23.34,52.14,52.14,52.14,52.14-23.34,52.14-52.14-23.34-52.14-52.14-52.14h0Z"/>
  </g>
</svg>