<?xml version="1.0" encoding="UTF-8"?>
<svg id="Layer_2" data-name="Layer 2" xmlns="http://www.w3.org/2000/svg" viewBox="0 0 594.69 530.53">
  <defs>
    <style>
      .cls-1 {
        fill: #fff;
      }
    </style>
  </defs>
  <g id="logo">
    <g>
      <path d="M594.69,109.03l-86.25,86.25-39.54-39.54-8.84,374.79H135.06l-5.36-378.95-43.45,43.45L0,108.78,92.22,16.55C105.23,3.54,123-1.8,139.93.53h98.13c.41,31.59,28.28,57.09,62.6,57.09s62.19-25.5,62.6-57.09h104.85c1.49.14,2.97.35,4.44.62,10.96,1.97,21.45,7.19,29.92,15.65l92.22,92.23Z"/>
      <g>
        <rect x="147.68" y="163.74" width="312.18" height="89.04"/>
        <path d="M200.35,192.09c-.08.03-.23-.02-.34,0l.17.33h-.5c.1-.39.03-.42.33-.67.01.14.21.25.33.33Z"/>
        <path d="M255.26,200.12c.31-.12.5-.51.5-.83-.29-.09-.79-.03-.67-.5.81.34.77-.06.89-.11.2-.08.45-.03.56-.11.24-.17.84-.89.58-1.2l.47-.08c.02-.31-.53-.22-.65-.35-.14-.15.31-.86.65-.82l.17,1c.34.35.25-2.01.33-2.17l-.25.33-.25-.67.67.17-.32-.23c.21-.44.31-.71-.19-.85-.09-.62.53-.61.64-.79.19-.32.03-.96.08-1.22.02-.1.25-.06.28-.19.16-.63-.48-.71-.48-.81l.66-.33c-.11-.27-.77.01-1.05-.63-.24-.55-.2-.88-.12-1.46l-.77-.16c.18-1.04-.03-.47-.36-.71-.16-.11-.18-.79-.68-.84l.13-1.13c-.39-.18-.93.21-.84-.33l-.5.5c.3-.73-.27-1.03-.84-1.42-.33-.22-.06.32-.25.25l-.08-.5h-.67c.25-.85-.45-.8-.5-1.51-.67.37-.39-.18-.82-.26-.24-.05-.61.13-.67.09-.06-.04-.2-.74-.34-.89-.17-.2-.71-.02-.7-.77l-.81-.02c.22-1.04-.26-.31-.68-.74.6-1.28-1.05.17-1.17-1.08h-.25s-.17.34-.17.34l-.17-.34-.42.67c-.29-.36.18-1,.13-1.14-.12-.39-.82-.25-1.14-.2l.33-.33c-.22.1-1.47-.53-1.15.23.19.45.75.26.65.77h-.67s.17-.5.17-.5l-.5-.17c.14.64-.34.54-.84.67l.33.5c-.13,0-.36-.04-.46.03-.07.05-.65,1.42-.8,1.63-.12.17-.55.3-.57.43l.33.67-.35.19-.66-.1c.1.32,1.09.66,1.16.95.01.06-.14,1.16-.19,1.21-.14.15-.8-.29-.28.66l.64.11-.47.67c.94.71-.25.81-.03,1.75-.67-.3-.5-.04-1,.17l.33.83.67-.33-.34,1.25.51.34c-.85.21-.58.49-.92,1.09l-.25-.33-.17.75c0,.18.35-.02.51.18.41.5-.26.41-.34.74,1.13.31.35.63.26,1.15-.05.32-.24,1.42-.25,1.62,0,.08.27.04.29.15.03.13.22,1.89.21,1.99-.01.11-.4.12-.43.43-.04.39.67,1.16-.24,1.44-.11.33.22.18.32.37.25.44,0,1.86.12,2.47l-.19.21c-.79-.3-.64-.09-.42.53l.27-.34.56.09-.34.75c-.18.16-.76-.46-.67.08.14.84.94,1.49,1.17,2.26l-.84-.33c-.11.09.9.79.67,1-.33.3-.48-.3-.67-.33l.51,1.58-.31.11.13.37-.34.19c.49.97.14.7-.11,1.12-.03.05.1.2.06.25-.04.06-.43.22-.45.46,0,.08.3.06.34.19.09.35-.09.83.02,1.2l.65.19-.34.59.32.15c-.22.26,0,.72-.49.6l-.33-.67v1.34c.97-.44.83,1,0,.84-.18.6.77.06.5.75-.18.46-.66-.04-.67.17l.18,1.08.99.26-.66.25c-.08.28.31.09.34.25.13.74-.41.49-.77.43-.35-.05-.27.14-.24.4.02.18.28-.14.5,0,.06.04.89,1.05.84,1.09l-.68-.1-.16.6-.67-.5v1.09c.49.12.13-.45.25-.59.48.21,1.02.21,1.5.34.71.19-.41.38-.09,1l-.33-.17v1.34c-1.53-.19-.8,1.3-1.15,1.74l-.52.1.83.5-.34.26.18.91h-.83s.24.45.24.45l.76-.11v.67s-.5,0-.5,0v.99s.67.26.67.26l-.65.98.74,1.27c.37-.45.51-.79,1.17-.84l-.08,1c1.2-.15,1.52-1.14.83-2.17h.5s0-1.51,0-1.51c-.78.19-1.56.48-1.84-.5.44-.16.28.3.44.33.29.04.67-.06,1.07.17-.18-.74.49-.29.59-.83l-.1-1.74.51-.19c.09-.48-.27-.75-.3-1.03-.01-.1.35-1.34.37-1.7.02-.34-.05-2.39-.12-2.5-.03-.05-.19-.04-.27-.05l-.02-.32c1.26-.36.41-1.24.5-1.73,0-.05.54-.24.46-.84-.05-.38-.49-.54-.46-.94h.5c-.42-.97.04-1.78-.21-2.64l-.79-.28.42-.59c.27-.19.32.72.5.17.35-1.04.21-2.02-.59-2.77-.01-.04.66-.14.34-.41-.18-.15-1.09.86-1,0,.63-.13,1.81-.78.96-1.29-.04-.03-.7.23-.3-.59.37-.75,1.02-.18,1.17-.3-.23-.36-.32-.58-.17-1-.32-.17-.79.21-.67-.34h.67s-.33-.42-.33-.42c.75-.72.29-1.99.39-2.82.07-.53.36-2.4.49-2.86.04-.13.32-.03.31-.33-.02-.56-.57-.66-.01-1.51-.91-.34.11-.39.48-.83-.68-.46-.1-1.53-.16-1.59-.3-.34-.45.71-.83.5.16-.4.07-.51-.17-.83.58.12,1.1.28,1.17-.5l-.5-.17.67-.33-.5-.17.84-.25-.59-.75-.75.34.33-1-.67.17v-.42c1.11-.15.29-1.02,1-1.09l-.5-.17.12-.3-.3-.13c.29-.67.44-1.16.03-1.81.27-.54.86-.16.99-.87.09-.47-.33-.33-.4-.77-.06-.38.39-.77-.1-1.22l.67-.08c.14-.6-.2-.34-.33-.67l.83.33-.59-.67.1-.67.33.67.67-.17-.17,1,.48.02c-.23.79.39.28.6.35.08.03.08.25.21.29.36.11.69.02,1.04.09.05.9.07.39.44.64.42.29,1.01.83,1.44,1.17.18.14.6.26.63.28.32.37-.42.25-.33.5.94-.22,1.02.79,2.01.67.4.39-1.17.64-1.17.75l.84.33-.33.41c.33-.01.7.45.68.75-.02.27-.55-.25-.09.42.22.32-.32.06-.25.25l.5.17-.17.58-.33-.33c-.18.51.28.49.29.53.05.12-.27.67.54.81l-.67.17.33.33-.33.17c.34-.02.45.27.51.57l-.68.6.5.25c-.5.3-.38.76-.61,1.21-.09.17-1.17,1.01-.22,1.05l.08-.33c.59.41.56.96-.23.67l-.19.67c-.43.2-.26-.63-.67-.25-.66.61.03,1.19,0,1.25,0,.01-.2-.02-.26.07-.08.12-.05.33-.11.38-.14.13-.45.07-.64.29-.13.15-.1.49-.19.56-.14.12-.64-.03-.8.29.4.09.38.47.08.75l-.49-.33-.46.65-.65-.15c-.24.77.47.81.63,1.06.09.14.01.41.05.45.05.06.98-.06,1.55.33.29.2.41.82.45.84-.16-.18-.53-.26-.51-.67l-.99.5c.03-.52-.62-.46-.77-.66-.15-.21.07-.85-.32-.67-.45.19-1.09.81-.76,1.34l-.83-.33.33.5c-.63-.15-.47.31-.5.34,0-.02.32-.18.33-.17v.67s-.33,0-.33,0c.02-.15-.04-.4,0-.5-.33.24-1,.19-1.17.67.24.17.94.14,1.06.18.14.05.09.33.19.33.21,0,.36-.23.58-.28.35-.08.41.35.75-.39.28.46.49.71,1.09.66l-.33-.33.83-.17c-.36-.39-1.18.49-1.17-.08.15-.29.65-.3.8-.47.07-.08,0-.33.08-.4.09-.09.91-.26.97-.21.38.31-.43.29-.33.5l.46.08c-.34.63.63-.15.87.09.09-.4-.13-.28-.33-.5.1.06.64-.04.84,0l-.09-1.35,1.01-.15-.09-.5h.51s-.17-.67-.17-.67l1.51-.08c.21-.15.17-.54.16-.76.09,0,.19.02.28-.03-.05-.2.07-.51.05-.64ZM200.41,180.88l-.48.02-.19.48c.54.2.71.14.67-.5ZM200.41,191.75c.2-.17.49-.2.67-.42-.28-.47-.8.4-1-.25l1.68-.94v-.57c-.21.08-.37.34-.35-.08.02-.27.18-1.4.5-1.26v-.33c-.61.12-.4-.17-.56-.44-.06-.09-.27-.04-.27-.15,0-.37.39-.42.67-.42-.52-.49-.05-.53-.04-.88,0-.24-.2-.54-.14-.84.03-.15.78-.31.51-.95l-.33.17c-.1-.38.21-1.08.01-1.39-.11-.18-.4-.19-.52-.37-.08-.11-.46-.9-.5-.92-.37-.21-.31.28-.41.3-.6.13-1.09-.17-1.42-.64l-.5.67.83.17-1.5.17.11.35.39.31-1.51.17c-.05.04-.16.34.22.29.43-.06.86-.09,1.29-.12l-.33.42.5.17c-.16.12-1.71.78-1.17.09h-.5c-.04.5.32.67.66.92l-.66.86.16.4-.42.17-.41-.34,1,1-.33.33,1.17.59-.5.25.17.83-.84-.16c.14.39.2.59.67.5l-.33.17c-.12.54.68.28.5,1-.24-.1-1.24.01-1.34.25-.2.48.79.63,1.06,1.09.26.45-.13.9-.25.2l-.47.13.66.75c-1.88.72-.51.77-.25,1.25.07.13-.1.38-.05.56.07.27.4.38.47.54.19.44-.72.1-.79.49.17.36-.06.99.45.94-.84.81.17,1.2,0,1.89-.04.17-.47-.03-.2.58l-.3.11c.28.64.77,1.03.5,1.76l.33-.17.67,1.25-.51.09.18.57-.36.18.51.83-1,.84c.83.32,0,.71,0,1.24h.49s0,.51,0,.51l-.51.09c.06.85-.58.05-.66.67l.47.11.03.48c.36-.18.81-.15,1,.25.17.36-.35.18-.46.29-.1.1.05.54-.36.47v.33s.33.08.33.08c-.67.25-.38.73.15,1.01l-.15.58h.67c.21.16-.67.88-.83.84l.09.33.58.16c-.93.14-.46,1.09-1,1.26l.34.17-.67,1.01v.41s.5-.26.5-.26l.33.43-.33.17c1.2.3-.26.82-.35.94-.38.53-.02,1.68.85,1.4l-.51.92.34.51-.33.08c.51,1.12-.21,1.83.52,2.93-.49.47-.33.58-.17,1.23.19.15.8-.24.65.35-1.71.12.18,1.9-.84,2.43v.32s1.18.88,1.18.88c.16.64-.29.78-.46,1.18-.44,1.04.13,1.49.62,2.3.47.32,1.33-1.23.83-1.59-.04-.03-.63.33-.76-.25l.1-.93h.67c.09-.47-.17-.33-.5-.34-.06-.42,0-.42.31-.58l-.14-.32.34-.2-.17-.74.83.17-.5-.42.83-.42-.17-.66-.25.34-.42-.5h.5c-.78-1.19,1.78-3.15-.67-2.43.28-.58.32-1.68,1-1.76v-.16c-.68-.01-.28-.75-.5-1.17l.5.17.17-1.17h-.57s-.1-.42-.1-.42c.13-.28.62-.16.68-.36.17-.58-.1-1.61-.02-1.96.04-.16.35-.06.35-.19l-.08-.25c-.11-.11-.97-.21-.59-.66.32-.38.28.52.58.33.36-.22.02-.91.92-.67v-.67s1.34.17,1.34.17l-.17.83c1.08-.18.69.59.99,1.06.13.21.46.17.64.32.27.24.23.69.45.96.33.39.83.46.9.55.08.1,0,.38.05.43.12.11.52-.06.64.05.06.06-.03.33.06.44.06.08.3-.03.53.25.22.26.1.59.13.61.14.1.61.05.82.27.24.24.1.6.21.88.03.07.89.88,1.02.99.28.26,1.01.22.6.89h.74c0,.69,1.24.98,1.73.63.18-.13.17-.93.71-.8l-.05.33.39.33-.67.25c1.46.98,1.25-.53,1.33-.58.35-.22.37.33.59.48.66.43,1.43.09,2.08-.15l-.58-.48-.42.15.33-1.17-1.51-.34.17-.33c-.36.01-.74.13-.67-.33l-.24.32c-.84-.12-.54-.66-.93-1.25l.33-.32-.67-.26.17-.5-.48.14-.49-.51.13-.3-1.17.09c-.37-.24.27-.95-.42-1.26l-.16.34-1.42-.67c-.07-.18.19-.59.15-.65-.05-.07-.5-.09-.48-.35l1.17-.33c-1.12-.85-1.04-.04-1.6,0-.06,0-1.04-.3-1.08-.35-.39-.46.81-.63.42-1l-1.08.42c.43,0,.4,1.36.08,1.42-.58-.4-.79-.35-1.38-.38-1.01-.06-.41-.62.24-.79l-.1-.51c.3.01.58.03.87-.05.14-.04.78-.27.8-.45-.45-.23-1.29.01-1.57-.04-.2-.04-.8-1.14-1.61-.8.04-.65.66-.82,1.17-.92l-.34-.58c-.39-.2-.28.3-.44.33-.35.08-.85-.05-1.23,0l.5-.59c-.23-.17-.43.03-.33-.42.59.12.49-.23.67-.67l-1.17-.17-.17-.83c.81.13.53-.38.08-.68-.22-.15-.46.15-.58-.49h1s0-.67,0-.67l.67.33-.17-.67,1,.33c-.54-1.11,1-1.14.63-2.07-.17-.42-.76-.04-.63-.6.43-.22.53.34.6.34.13,0,.87-.19.93-.28l.15-1.07c-.4-.17-1,.18-1.17-.33.61.09.89-.16,1.01-.74-.88-.3-.45-1.31-1.56-1.06-.72.16-.53.7-.87.99-.15.13-.46.1-.55.19-.19.19-.4,1.79-1.44,1.59-.75-.35-.15-1.02-.03-1.55.08-.36-.35-.52.43-.84l-.33-.17c.46-.34.26-.37,0-.75l.33-.08-.32-.84.49-.08-.5-.33c-.12-.48.36-.24.43-.66.05-.27-.07-.43-.1-.68l-.5.09,1-.67c.15-.32-.5-.25-.76-.41-.45-.26-.32-.59-.24-1.01l.33.33c.06-.45.29-.78-.16-1.09.6-.67.29.16.83.08-.1-.6-.75-.8-.67-1.34.92.38.78-.6-.09-.2-.19-.56-.16-.34-.58-.64.28-.1.56-.13.67-.5l-1,.17ZM292.89,181.72l.26.67.91-.59-1.17-.08ZM198.24,181.89l-.42-.17-.25.25.41.25.25-.33ZM229.85,181.89l-1.5-.17v.84s.51-.09.51-.09l.25.59.08-.5.67.33v-1ZM350.59,198.61c-.29.07-.52.07-.81.01-.51.8-.19,1.63.81,1.66l-.17.5-.33-.5-.25.33c-.46-.39-.68-.55-.42-1.17l-1,.92.83.41-.99.35v.48s.66.18.66.18v-.84s1.17.17,1.17.17c.07.28-.22.1-.31.2-.07.07.22.65-.19.89l-1.51.08.33-.5-1,.17.34-.41-.51-.42c.32.78-1.31.59-1.01,1.66h-1.16c-.14-.62.68-.09,1-.33v-.5s-.67,0-.67,0l.12-.3-.29-.13c.14-.51.2-.98.84-.91.07-.3-.27-.11-.32-.18-.05-.06.56-.85,0-1.08l.83-.34-.5-.58c.99.04.68-.39.85-.65.02-.03.27.11.32.06.17-.14.85-3.24,1.05-3.84.03-.1.26-.07.28-.19.06-.46-.03-1.35-.33-1.74.38-.16.41.64.83.33.3-.22-.13-1.03-.5-1.09.06-.13.71-.21.78-.46.25-.87.32-1.05.74-1.83.13-.25.52-.06.18-.78.6-.02.1-.13.05-.44-.04-.26.12-.82.07-.98-.04-.14-.31-.03-.33-.35-.03-.49.03-1.67.34-2.01l-.66-.08c.16-.53-.03-1.18.67-1v-.16c-.7-.06.08-1.37-1.17-1.34v1c-.78-.27-.73.05-1.17.59.47.12.17.53.5.92l-1.5-.33.33,1.17h-.5s.33.5.33.5l-.5-.17v.33s.5.34.5.34h-1s.67,1,.67,1c-.37-.12-1.22.78-1.26,1.08-.02.18.1.43.09.66-.02.42-.38.79.08,1.1l.25-.33v.67s-.67,0-.67,0c.39.77-.13.63-.17.78-.12.49.28,1.18-.09,1.72-.2.3-.88.35-.75,1.01l-.67-.17.15.76-.31.41.67.17-1.03.27-.15.73h.67s0,.84,0,.84l-.17-.5h-.5c.35.6-.1.65-.11.7-.04.17-.21,1-.21,1.06,0,.37.51.72.16,1.26l-.5-.17.16,1-.5-.17c.2.73-.32.69-.83,1.01-.15.23-.04.22.13.32.58.34,1.42.37.37,1.01l.17-.5h-.33c-.46.61-.44,1.17-.49,1.9l-.51.11c-.09.8,1,0,.67.75-.1.22-.56.19-.81.53-.23.32-.44,1.49-.37,1.89l-.67-.17c-.05.6-.25,1.19-.33,1.79-.04.26.13.55.11.65-.03.17-.35.17-.43.27-.05.06-.15,1.31-.2,1.52-.02.06-.45.25-.32.78l.5.18c-1,.02-.81.64-.67,1.34l-.5-.17v.48s-.84.02-.84.02l.83.17-.83.58c.73.28.43.75.16,1.34l.34.17c-.7.39-.24.74-.32,1.14-.03.15-.34.16-.41.29-.45.81-.31,1.37-.53,2.08-.22.74-1.83,4.5-1.41,4.93.6.16.79-.56,1.17-.73.61-.29,1.84.27,1.34-1.27.65.39,1.08,1.08.84,1.84,1.29-.46.21-2.86,1.5-3.6l-.5-.17c.17-.7,1.06-1.14,1.14-1.37.07-.22-.09-1.07.03-1.39l-.66.17.16.76-.27.38c-.39.12-1.07-.06-1.23-.48l.83.17c.09-.57.44-1,.98-1.2l-.14-.3.51-.1v-1.07c.22,0,.34.52.58.17.43-.63.1-2.16,1.09-2.44l-.51-1.16c.25-.43.55-.05.88-.12.52-.1,1.01-.45,1.63-.3l.09.5c.59-.35.46.04.91.17l-.5.25.5.42c-.16-.09-.67-.21-.66.08,0,.4.73.1.8.13.02.01.03.17.1.22.13.08.33.07.38.11.25.25.06.85.1.93.06.12.74.51.76.56.04.11-.2.36-.13.46.03.05.76.31,1,.6.51.62.72,2.02,1.84,1.93l-.33.5.5.08c-.47.39.61,1.05,1.01.76-.39.84.17.65.41,1.01.14.21.1.51.33.84.27.38.87,1.01,1.34.66l.17.32c.32-.4,2.4.59,2.1.85h-.67c.19.56.85.03,1.34.34l-1.17.41c.21.81,1.46.59,1.75,1.09.09.15.14.61.08.67-.29.3-.65-.59-1-.33l1.76,1.17.32-.34.78.42.32.75-.77-.15-.23.15c.56-.13.14,1.28.83,1.17v-.67s.67.17.67.17l-.17-.67,1,.16c-.33-.68.05-.41.17-.61.16-.27.4-1.04-.17-.89l-.33.67c.57-1.07-.45-1.15-.51-1.28-.24-.58.13-1.04.34-1.56-.69.06-1.14.76-1.66-.1.18-.46.63-.63.5-1.23.45.1.13.53.33.75.09.1.73.52.84.42-.66-.73-.38-1.5-.85-2.37-.08-.15-.27-.19-.36-.35-.19-.35-.27-1.05-.44-1.21-.07-.07-.86.07-1.11-.42-.2-.38.11-.71.06-.81,0-.02-.23-.02-.31-.14-.1-.15-.08-.4-.21-.51-.3-.26-.95-.07-.8-1.04h-.66c-.06-.07.15-.97-.33-1.01v.5c-.71-.13-.38-.51-.54-.79-.35-.62-1.01-.94-1.58-1.27-.07-.04-.04-.26-.05-.27-.31-.21-.22.24-.67.33.06.19.13.37.14.57l-.48.27.15-.47c-.33-.03-.36,0-.31-.36.16-.02.35.03.5,0-.03-.09.02-.23,0-.33l-.67.17v-.74s.83.08.83.08l-.16-.42-1.17.09-.33-.67-.09.67-.75-.59c-.14-.37,1.02-.29.83-.92l-1.24-.03c-.36-.1.16-1.05-1.61-.81l-.5-.34.49-.17v-1.5c-.64.42-.6-.22-.76-.5-.07-.13-.37-.13-.41-.29-.05-.22.05-2.16.68-1.43v.38s1.17-.17,1.17-.17c-.1-.89-1.14-.14-1.17-1,.67-.24,1.05.02,1.67.16-.17-.99-.97-1.33-.84-2.34l-.67-.08c1.31-.23.56-.4.56-.67,0-.13.32-.31.28-.5-.06-.32-.84-.06-.67-.59,1.63.24.72.7.73,1.25,0,.09.17.22.2.37.03.15-.1.36-.09.37.09.13.84,0,.66.51l-.67.08.66.76c-.08-.86.72-.44.67-1l-.32-.07.15-.43h-.67s0-.84,0-.84l.5.67.5-1-.09,1.34.43.17c-.19-1.25.86-.59.86.14.57.21.86-.32,1.15-.73l-.66-.08.33-1,.33.67c.63-.17.08-1.39.17-1.5.6.13.31.3.58.66.47-.23.91-.57.32-.99l-.57.16c-.42-.82.15-.7.17-1.34l1.07.67,1.43-.76-.34-.58c-.55.09-.44.48-.74.83-.13-.6-.43-.03-.75-.42l.5-.17-.33-.58.67-.25-.5-.75c-.56.41-.59.2-1.15.01-.3.55-1.2,1.37-1.85.74l.66-.08c0-.16.03-.34,0-.5.52-.13.78-.84,1.5-.67l-.33-.33.77-.16-.1-.84c.47-.21.63,1.07.83.83l.11-.34h.56s.06.51.06.51l.6.16v-.67s.67.33.67.33l.02-.83c.83-.03,1.22.63,1.97-.04-.21-.18.41-1.31-.06-1.3-.41,0-.05.8-.08.83l-.66-.25.92-1.09.17.34.34-.67.58.33-.33-.5,1.32-.52c.12-.36-.15-.76-.04-1.11.11-.34,1.09-.51.05-.96.23-.46.69-.07.81-.12.02,0,.02-.22.14-.3.53-.36.84-.64,1.55-.5l-.19-.48-.65.15v-.5s.67-.08.67-.08l-.67-.42c.73.2.73-.61,1.5-.51-1.13-.67-.01-1.86.17-2.84-.41.27-1.5-.07-1.8.06-.15.06-1.2,1.41-1.27,1.62-.18.55.23,1.4-.67,1.17-.12-.03-.1-.27-.19-.3-.51-.17-1.59,1.02-2.08.98.25.56-.26.89-.41,1.34-.1.3.19.67-.26.91l.33.16c-.36,1.01-2.39.65-1.84,2.09l-.67-.33v.84s-.66.02-.66.02c-.28.39-.87,1.21-1.26,1.66-.38.44-1.09,1.03-1.52,1.49l-.09.25c-.03.21.15.41.18.59ZM292.54,182.08c-.41-.24-.86.22-1.07.24-.2.02-.4-.18-.57-.19-.29-.02-.57.47-1.02.09l.16.67-1-.67c.14.94-.86.38-.84,1l-.17-.33-.17.33c-.45.11-.37-.61-1-.5l.17.67c-.64-.79-1.36.45-1.58.46-.08,0-.51-.34-1.01-.26-.72.13-.89.61-1.16.74-.21.1-.84-.13-1.17-.1-.49.05-1.04.48-1.39.62-.37.14-.97.15-1.38.38l.33.33-1.32.02-.18.58c-.31.06-.6-.11-.91-.07-.9.09-.42.27-.49.54-.17.7-.61.17-.7.17-.15,0-.33.31-.66.28-.22-.02-.4-.32-.61-.27-.24.06-.52.42-.83.52-.41.12-2.49.25-2.5.67l.32.42c-.62-.07-.74.32-1.16.6l-.75-.26-.26.41h.34s-.25.4-.25.4l-1.16-.48-.26.33h.84c-.13.55-.6.12-.8.2-.06.02-.67.81-.7.97l-.33-.33c0,.48-.6.59-1,.5l.5.84-.84-.17-.08-.67-.09.5c-.58-.17-1.25.6-1.32,1.09-1.33-.06-.68.81-1.62,1.24l.09.51h.25s-.08-.33-.08-.33c.61.25.84.43,1.52.22.9-.27.54-.56.68-.69.17-.16,1.01.13.81-.7l-.5.17-.17-.5c.43,0,.81.22,1.26.18.53-.05.58-.55,1.08-.02v-.33c.45-.17.26.28.45.33.3.08.72-.07,1.06.17l.36-1.14c.44.15,1.11-.31,1.32-.29.28.03.3.39.44.42.28.06.79-.11.98.16l.08.58-.34.18v.34s.34.16.34.16l-.33,1.26h.67s.09-.67.09-.67c.34-.17.22.55.21.58-.16.38-1.1.23-.97.75h.67c-.22.4.17.64-.34.75l.84.25-.34.84-.67-.17c-.07.22,0,.73-.25.83-.42.16-.23-.7-.58-.67.23.74-.25,1.56.33,2.17h-1.17c-.12.6.13,1.03-.5,1.43l.34.33c-.25.46-.66.61-.91,1.11-.37.77.17,1.78-.92,2.26v.38s.49.35.49.35l-.67-.17-.17,2.01h.67s-.33.59-.33.59l.33.17-.84.42-.08-.5c-.42.22.06.81-.1.99-.04.04-.33,0-.47.1-.37.25-.37.84-.35,1.25l.25-.33c1.04,1.04-.73.48-.25,1.67l-.67-.17.02.65.48.26-.5.42-.17-.5c-.18.5-.24.91,0,1.41l-.31.12.3.64c-.61.28-.72.98-.33,1.67h-.76c-.27.45.1,1.04.06,1.15,0,.02-.28.02-.36.24-.1.25.05.55.02.6-.05.08-.32.06-.4.27-.08.21-.16,1.23.27,1.18-.77.7-.32.61-.26,1.18.02.21-.08.74-.04.84.04.13.48,0,.3.41-1.18.3-.65-.15-.66-.91,0-.34.1-.49-.34-.42.34.97-.57,1.1-.16,2.07l-.33.18.14,1.51.51.09c-.18.42.11.74-.47.86l.14.31c-.06.05-1.01-.33-.84.34l.5-.17c-.22.51.76.86.81,1.1.14.6-.95,1.05-.81,1.74h1.17s-.33.42-.33.42l.33.17c-.6.23-1.16.68-1.84.59l.67-.83c-.62.09.05-.71-.5-1.17.28,0,.69-.04.67-.42l-.83-.41c-.15.13-.21,2.31-.27,2.74-.02.19-.63,1.13,0,1.07.19-.02.63,0,.68-.02.06-.02.58-.71,1.18-.13l.07,1.01-.58-.5c-.54.71-.43,1.87.17,2.5l.41-.41-.5-.08c-.08-.15.37-1.09.49-1.22.43-.46,1.8-.49,1.51-1.45l-.17.33h-1.06s-.28-.5-.28-.5c1.19.03.93-.44,1.28-1.01.08-.13.31-.13.44-.38.33-.65.23-1.46.78-1.88-.87-.24.43-1.17.17-1.42l-.5-.08.5-.25-.33-.17c.41-.34.09-.86.5-1l.17.5c.28-.59.12-1.65.2-2.09.01-.07.76-.98.79-1.05.18-.48.12-1.38.22-1.92.06-.37.64-1.29.26-1.6-.14-.11-.52.13-.47-.19.78.16.37-.38.58-.68.13-.19.55-.07.6-.26.04-.15-.05-.43,0-.63.12-.49.39-.87.17-1.42.85-.03.94-1.23,1.13-1.99.12-.46-.07-.25.18-.84.1-.25.02-.6.35-.79-.48-.14-.3-.34-.24-.76l1.08-.33-.11-.3.44-.37-1.17-.17c-.05-.47,0-.9.58-.84l.42.51.17-.41c.4.43.52-1.16.47-1.33-.08-.26-.72-.43-.63-.6l1-.43-.15-.56.48-.35c-.65.03-.63-1.56-.18-1.76l.84.08c-.08-.51-.21-.92.17-1.34l-.5-.33c.37.12,1.41-.47.91-.84l-.9-.07-1.01-1.09,1,.33-.17-.5h.5s.08,1.17.08,1.17c.03-.7.32-.66.58-1-.27.15-1.04-.54-1-.75l.93-.42-.09-.83.66-.18-.5-.17.35-.99c.7.42.79-.37-.02-.43-.07-.3.57-.38.6-.83.02-.23-.16-.47-.25-.67l.49-.25-.67-.33.67-.59-.33-.08c-.06-.43-.01-.43.33-.58l-.34-.92h.5c-.3-.47.19-1.02.67-.67l-.16-1c1.21-.13,1.31.05,1.75-1.18.33-.14.22.34.34.35.16,0,2.01-.6,2.08-.68l-.33-.5c.15-.12.89.31,1.1.32.07,0,.06-.3.18-.33.54-.11.59.16,1.42-.18.43-.18.74-.2,1.02-.32.21-.1-.02-.48.63-.16-.47-1.08.22-.63.55-.73.91-.28,2.01-.38,2.56-.77l.38.13.1-.28.43.15-.17-.33,2.34-.34v-.83s.84,0,.84,0l-.17-.33h.51s-.18-.5-.18-.5l-.73.15-.26-.65.42.33c.46-.19-.25-.81.42-.67v.67s.67-.17.67-.17l.33.5-.52-1.14ZM230.35,204.8c.12-.03.31-.16.33-.26.07-.42-.63-.49.04-1.05l.46-.11c-.31-.43-.62.13-.74-.4l-.42.15c.18-.86-.41-.25-.67-.67.56.07.31-.57.59-.65l.57-.02-.08.5c.55-.45.58-.65,1.42-.5.13-.62-.49-.14-.69-.43-.46-.66.02-1.42-.06-1.58-.12-.26-.77-.33-.76-.74.22-.27.38.18.68.17.53-.02.42-.57.82-.26v-.5s-1,0-1,0l.33-.33h-.33c-.15-.46.28-.29.41-.5.5-.77-.19-1.49-.07-2.25l-.51-.18.34-.17-.29-.5.29-.42-.33-.08.35-.57.49.15.33-.34c.08-.29-.34-.08-.34-.25-.01-.53.79-.6-.24-1.08l-.25-1.35h.5s0-.5,0-.5h-.49s-.03-.66-.03-.66h-.49s.08-.32.08-.32l.42-.11c-.11-.69-.26-.92-1-.92l.08-.33.92.08-.5-.75c.25.62-.58.6-.67.5-.29-.34.47-.59.47-.94,0-.33-.35-.7-.12-1.46.04-.14.32-.11.32-.18,0-.08-.65-1.33-.71-1.38-.11-.11-.54-.11-.8-.3-.39-.29-.72-1.36-1.18-.01l.35.18c-.2.5-.65.22-.67.25-.18.31.28,1,.5,1.26-.34.15-.39.15-.33.58l.5-.17v.5s-1.17-.17-1.17-.17c-.23.42.34.55.34.59,0,.28-.66,1.36-.51,1.92l.33.16c-.5,0-1.35.28-.5.59-.37.26-.44.89-.33,1.31.03.12.55.11.16.95l-.5-.33c-.03.44-.11.61.33.75l-.34.59.5.17c-.87-.18-.19.61-.84.75.29.38.59.74.5,1.26l-.41-.33c-.33.37-.8.97.08.84.07.28-.31.06-.34.27-.02.13.12.32.09.48-.12.75.01.54.01,1.09,0,.27-.3,1.05-.27,1.42l-.5-.08.78.57c-.04.53.29,1.52-.28,1.69l.32.16c-.23.27.03,1.05-.01,1.17-.02.07-.46.16-.39.67.03.23.4.65.42.85,0,.07-.3.06-.34.18-.14.56.07.96.67.9.06.27-.23.07-.33.29-.09.21-.05,2.61.02,2.78.1.27.52.23.48.35-.55.1.02.63-.51,1.17.91.41.16.41.16,1.17,0,.41.28.73.3,1.04.01.21-.27.47-.26.84.11,4.02,0,8.76.48,12.65.03.26.17,1.62.4,1.61.75-.31.29-1.11.63-1.46.04-.04.91-.58.96-.6.29-.11.76.03,1.16-.2.64-.36.22-1.17.17-1.75l-1.39.34c-.17-.04-.2-.39-.36-.51-.24-.19-.86-.29-.76-.58.13-.38.75-.01,1-.09v-.5c-.15-.17-1.01.53-.84-.17h1.5s0-1.58,0-1.58l.33-.18.08.59c.84-.35.42-1.53.55-2.31l-.72-.37-.33.34-.26-.67,1.17-.17c-.36-.82.05-.33.29-.53.11-.09.11-.6.38-.72l-.46-.5.46-.58c-.33,0-.74-.07-.67-.5,1.23-.42.55-.62.5-1.09,0-.09.12-1.73.16-1.81.07-.16,1.23-.19.24-1.29l-.82.35-.35-.25.1-1.09.83.5.26-1.51c-.37-.52-.65-.24-1.09,0-.11-.57.34-.77.84-.84l-.14-.47.64-.37-.49-.18c-.05-.22,0-.44-.01-.66-.13.04-.35-.02-.5,0l.42-.5c.17.04.07.35.08.5ZM216.97,188.07c.17-.26.5-.61.84-.5v-1.17s.42.5.42.5c.24-.1.64-1.07.59-1.34l.66.17c.38-1.45-.04-2.5-1.67-2.01l.17.5-1-.17.33.5-1.43.35-.41-.35.17.83-.69.1c-.28.4-.1,1.09-.15,1.3-.04.16-.5-.04-.16.61-.86.22-.17-.58-.84-.5v1s-.67-.17-.67-.17l.5.83h-1s.5.17.5.17c-.12.7-.53.38-.79.55-.04.03-.65.46-.68.49-.16.19-.09.78-.25.93-.07.07-.32,0-.41.07-.11.1-.04.41-.31.62-.2.16-.92.14-.45.51l.38.16c-1.18-.07-1.79,1.36-2.84,1.51.61.65.04,1.65-.84,1.5l.67.25-1.14.61c.17.45-.3,1.48-.87,1.31l.17.67c-.85-.23-1.1.82-1.17,1.51.45.16.27-.3.44-.34.31-.06.82.11,1.08-.07l.16-.6.5.25-.5.5.67.5-.33.42,1.17-.17-.17-.67h1.34s0-.5,0-.5c-.09-.11-1,.54-.84-.17l1-.17c0-.47.16-.77-.34-.92l.34-.5c-.32-.5-.56.14-.83.34l.33.08-.33.34.33.17c-.29.73-.79.05-.81-.46-.01-.39,1.14-.99,1.48-1.13l-1-1.09c.29-.08.55.29.75.28.13,0,.9-.68.92.12,0,.23-.46.99.09.94l.17-.48,1.07-.04c.17-1.17.59-.73,1.33-.86l.18-.73-.32-.15.59-.58.33.33c.28-.42.84-1.16.44-1.61-.31-.34-.82-.05-.85-1.07.4-.1.63.1.75-.34.59.57,1.17,1.15,1.76.17-.53.24-.7,0-1.17-.17.29-.43.54-.62.34-1.17l1,1-.33-.67h1s-.17-.67-.17-.67h.84s-.14-.31-.14-.31l.48-.28-1.17-.25.25-.45.58.11c.06-.1-.02-.28.01-.32-.32.05-.56-.19-.5-.5l.5.17v.33ZM337.27,184.36c-.05-.09.1-.29-.05-.39-.16-.11-.39.04-.53,0-.32-.12-.72-.46-1.05-.41-.05,0-.57.7-.77.34v.5s-.59-.5-.59-.5l-.15.32c-1.16-.32-2.1-.08-3.2.17-.35.08-.62-.24-1.08.31-.22.26.05.73-.74.55l.08.33c-1.18-.41-2.13-.43-2.34,1-.49,0-1.13-.27-1-.84-.55-.11-.8.43-1.04.55-.37.19-.81.22-1.12.39-.08.05-.74.73-.79.74-.32.04-.69-.24-1.27-.14-.66.12-1.58.87-2.07,1.28-.32.27-.75-.02-.57.85l-.41-.33c-.35.12-1.11.94-1.2.97-.89.31-.56.05-1.41.59-.61.39-1.5.6-1.82.78-.02.01.17.19-.07.49-.32.41-.75.41-.89.55-.04.04-.52,1.01-.53,1.07-.03.28.4.4.31.73-.75-.46-1.47.54-1.58,1.15-.02.13.07,2.34.11,2.57.03.18.6,1.71.68,1.76.19.13.7.02.93.24.17.16.03.5.09.59.04.06.89.93.95.96.45.2,1.02.04,1.5.09.17.76-.84-.2-1,.33.73-.03.57.29.68.83h.66c-.22,1.71,1.67,1.46,2.72,1.73.23.06,1.38.63,1.68.79.15.08.16.35.36.44.29.14,1.06-.14,1.1-.1l-.17.83,2.1-.31.24.31c-.06-.46.29-.34.67-.33.07.31-.34.06-.34.25,0,.84,1.49-.28,1.67.41l-.5.17h1c-.02.14.04.46,0,.5-.29.36-.38-.68-.67-.33-.26.32.3,1.08.75,1.17.54.12-.08-.44.17-.5l.42.67-.5.17c.84-.13,1.45.35,1.34,1.23l-.34.11,1,.75-.33.25c.44-.1,1.3-.09,1.42-.5l.25.5-1.5.18-.51,1.91c.69.21.34.19.59.6.08.14.54-.11.58.49-.53.18-.42-.34-.75-.35-.18,0-1.22.14-1.26.19-.46.57.73.47.84.83-.39.09-.87-.24-1.22-.17-.08.02-.21.51-.62.34.42,1.11-.61.2-.78.83h-.73s.33.84.33.84c-.77-.02-2.15-.09-2.88.17-.18.07-.7.72-1.33.88-.83.22-1.93.09-2.75.42-.54.22-.08.25-1.06.44-1.34.26-.81-.05-1.25-.09-.55-.05-1.17.3-1.76.19l.33.83h-1.34s.17-.5.17-.5h-.84c.66.6,0,.71,0,1.08l.29.11.04.56c1.11.47.65-.65,1.68-.76l-.33.83h4.51s-.25-.5-.25-.5c.46.34.93.23,1.17.83l.17-1,.5.83.34-.5.08.33,1.17-.17c-.26-1.22.28-1.75,1.34-.91-.37,0-.64.84,0,.75.07-.94,1.1-.26,1.03-1.14l.48-.03c-.84-.52-.44-1.05-.67-1.84l.6.16-.07.75.89.93c.88-.53-.88-1.24-.25-1.59l.48.05.03-.29h.33s.09.33.09.33h.25c-.07-.69.8.1,1.31-.28l.45-1.06c.18.41.4.54.84.63.37-.86,1.24-.33,1.25-1.3.55.31.83-.02.17-.25.71-.48,1.85-2.37,1.93-3.18,0-.05-.1-1.01-.13-1.05-.07-.09-.44-.15-.45-.28,0-.03.24-.17.25-.33.05-.81-.65-.81-.59-1.6l-.83.17c.53-.72-.71-2.63-1.42-2.61-.36,0-1.81.84-2.09.1h.84s-.09-.34-.09-.34l.59-.16c.14-.53-.31-.22-.46-.37-.06-.06-.29-.7-.66-.97-.16-.12-.45-.08-.58-.16-.29-.18-.17-.58-.71-.5l-.09.84-.67-.17.3-1.14c-.33-.37-1.18-.42-1.43-.58-.84-.54-.82-.26-1.39-.53-.23-.11-.29-.52-.51-.66-.38-.25-1.46-.55-2.06-.95-.6-.4-1.07-1.25-1.78-.98l-.08.33c-.29-.38-.58-.56-1.09-.5l.83-.25c-.31-.47-.87.1-1-.42l.5-.17c-.63-.4-.77-.65-1.6-.64l-.15.29-.76-.15.75-.67.42.33c.51-1.01-.76-.72-.5-1.67-.43-.22-.29.38-.42.33l-.59-.83.48-.02.03-.48.41.33c.47-.39.68-.56.42-1.17l.67-.09-.33-.25.51-.11.15-.65c1.4.4,1.34-1.24,2.67-.93-.12-.75.66-.2.53-.96.21-.02.93,0,1.05-.04.08-.02.31-.59.94-.32l-.17-.5,2.01-.92-.33-.17c.51-.36.82-.1.67-.92.56-.19.8.44.52.76-.18.2-.53.15-.52.41h1.25c.19-.02-.06-.35-.03-.56.01-.12.22-.26.22-.36,0-.12-.26-.28-.28-.5,0-.07.78-.94.83.17-.47.11-.11.36-.32.74l.74-.61.6.12-.33.33h.84s-.17-.5-.17-.5c.27.29,1.74-.16,1.5-.33l-.83.17-.02-.99h-.48s.25-.51.25-.51l.92,1.17.09-.5c.48.33.88.2,1.43.25l.34-.74c.75.09,1.52.42,2.16-.17l.03.31.47-.13.17.32c0-.69,1.22-.06,1.01-1l.43.15c.33-.85.27.21.97.02.12-.03.12-.25.23-.33.29-.19.72-.17.72-.67.4.11.23.37.16.67.08.07,1.65-.12,1.8-.22.18-.13.18-.75.7-.45l-.17-1c-.69-.08-.26.63-.56.84l-1.44.66.3-.35c-.37-.48.58-.61-.13-1.06-.09-.06-.33.09-.34.07v-.33s.34-.09.34-.09c.08-.38-.23-.21-.28-.28ZM191.88,184.9c-.4.09-1.41-.96-.84.26l.5-.09v.5s-.67-.17-.67-.17l-.09.51c-.48.04-1.7-.94-1.84-.17l-.75-.34.33-.5h-.84s0,.67,0,.67l.5.17h-.83c-.09.23.68.16.33.5-.02.02-.4-.11-.63-.05-.36.09-.8.47-.96.49-.12.01-1.41-.24-1.09-.6.51,0,1.24-.52,1.42.17,1.07-1.07-.76-.52-1.32-.52-.32,0-.73-.26-1.1-.14v.82s-.84.17-.84.17v-.51c-.79.2-1.57.86-1.51,1.67h-.5c.04-.54.19-.84.66-1.08-.59-1.24-.36.51-.94.72-.46.16-1.2.06-1.64.12-.18.02-.37.22-.66.25-.88.11-1.68-.2-2.6.33l.33.83c-1.14.33-.44-1.14-1.51-1l.3.93c-.44.09-.61.54-.64.57-.39.26-.36-.92-.77.01h-.73s.08.33.08.33c-.59-.35-1.48.14-1.67-.5-.28.11-.07.43-.12.47-.12.1-.92.25-.97.45-.09.38.71.62.13,1.04-.05.04-.92.24-.96.21l.17-.5c-.65-.16-.51.61-1.15.52l-.02.82.33-.08.1-.58.91.24-1.09.73-.42-.31.26.66-.18.34c-.6-.44-1.28-.32-1.26.51l-.67-.33c-.17.19.08,2.68.17,3.06.03.13.28.1.31.23.2.93.11,1.79.69,2.73l.67-.83.34.83h-.5s.35.43.35.43l-.18.58c.77-.72,1.6-.62.5.25.3,1,1.07.9,2,.92.18.45-.5.4-.5.58,0,.07.8.97.96,1.06.37.19,1.46.1,1.63-.3l-.09-.51.84-.25c-.25-.24-.97-.02-.84-.58l.83-.34-.17.5h.33s.32-.73.32-.73c-.41-1.07-1.38-.54-1.62-.64-.17-.07-.82-1.18-.9-1.45l-.39-.03-.33.34-.75-.75.48-.26s-.18-.38.1-.49c.67-.25.28.89.92.58-.33-.53-.11-.92-.85-1.01l.18-1.08h-.51s.18-.41.18-.41l-.34-.1.67-.41-.83-.34,1-.17c-.38-.52-.62-.91-1.17-1.25l1.17-.34c-.06.38.02.45.34.58l-.33.42h.67s-.17-.5-.17-.5c.29.22.84-.48.83-.59,0-.19-.54-.14-.5-.42.82-.5,1.02.14,1.12.16.71.17,2.24-.54,3.06-.5l-.66-.34.13-.3-.31-.19c.45.09,2.45.53,2.67.33l-.33-.5c.58-.24,1.4-.05,1.89-.17.13-.03.11-.32.22-.34.33-.05.96.34,1.16.31.17-.03.18-.37.26-.43.23-.15,1.59-.16,1.87-.2.05,0,.33-.55.8-.42l-.02-.42h2.01s-.17-.67-.17-.67c.49-.11.44.38.33.67l.67-.17-.33-.5c.61.11.66-.57,1.16-.76,1.07-.4,2.77.14,3.99-.28l.2-.39-.34-.25c.78.16,1.27-.59,2-.93.02-.11-.41-.78-.5-.84-.18-.11-.46.11-.49.09-.05-.03-.36-.98-.18-1.16l-.33.33ZM201.92,185.56c.06.08.61.2.66-.08l-.41-.41c-.15.1-.35.37-.25.5ZM326.34,186.23l.5-.42-.25-.25-.42.17.17.5ZM387.38,186.4c-.44-.08-.62.08-.67.5l-.5-.33v.67s-.67-.33-.67-.33l-.17.33c.12-.92-.66-.5-.34.17-.3.16-.78-.38-.83-.33-.06.05.13.4-.17.33l-.33-.83-.18.66h-1.16s.17.51.17.51c-.83.08-1.19-.64-2.01-.5l.5.34-.42.34-.75-.51.15.43-.31.14.17.5-.35.18c.7.02.07.69-.17.81-.28.15-.86,0-1.19.19l.02.42h-.84s.5-.67.5-.67l-.67.17.17.33h-1s.33,1.67.33,1.67c-1.21-.37-.93.41-1.09,1.02-.1.39-.59.54-.25,1.16-.66-.09-.25-.44-.67-.67l-.17.84.5.17c-.9-.24-.33.81-.51,1-.06.06-.68-.07-.83.26l.5.25h-1.34s.42,1.18.42,1.18l-.74.19-.02.48h-1.34s.5.5.5.5l-.5-.08.17.58-.5.08.83,1.25c-.77-.15-.56.55-1.39.19-.52.11-.37.84-.49.96-.08.08-.36-.05-.47.13-.2.34.03.91-.02,1.03-.02.04-.23.04-.3.16-.28.44-.49.92-.82,1.33l.32.72-.67.17c.51.92.1,1.56-.17,2.34l-.5-.17.12.3c-.59.11.02.79-.63.97l.17.4-.51.08v.59s.34-.5.34-.5c-.12.45.15,1.02.12,1.4-.05.63-.76,1.69-.54,2.45.16.53.7.57.09,1.33l.5.25c-.86,1.06-.46,1.15.15,1.86.12.14.12.44.21.53.03.03.51-.18.64.46-.6-.04-.6.53-.46,1,.02.07.2.06.27.22.47.95,1.65,2.63,2.45,3.38.18.17.66.04.91.17l-.14.31.56.36c.3-.78.59-.26,1.25-.5v.48c.85-.08,1,.24,1.42.85l.26-.83h.66s-.33-.84-.33-.84c.47.06.55-.19.78-.52l1.4.35-.67.5c.4.04.81.22.84.67.22.17.66-1.54,1.16-.88l.09.39c.63-.04,1.23.11,1.81-.2.25-.13.5-.58.71-.61.2-.03.45.17.62.14.13-.02.15-.31.29-.41.14-.11.39-.06.5-.21.15-.2.05-.64.42-.88.3-.2.89-.18,1.31-.36.52-.23.86-.73,1.36-.99l-.25-.99c1.03-.12,2.39-.78,3.1-1.58.11-.12.12-.37.23-.52.46-.62,1.43-1.26.67-2.09l1.51-.34c-.24-.45.09-1.05.5-1.25l-.84-.75,1.17-.17c-.49-.48-.16-.96-.32-1.56l.66-.27c-.41-.58.13-.48.14-.58.01-.11-.18-.9-.14-.92h.5s-.31-.43-.31-.43l.48-.67-.35-.82c.3-.28.62-.42,1.02-.27-.15-.47-.12-.71-.67-.75l.35-.57.49.16c.2-.75.04-1.47.08-2.22.02-.42.3-1.84.27-2.02-.03-.15-.34-.16-.43-.28-.12-.16.13-.7-.25-.93l-1.17.1c-.09-.59.94-.32,1.29-.55.58-.38.21-1.22.22-1.71,0-.39.2-.93.07-1.28-.12-.33-.41-.32-.41-.41,0-.31.38-1.65.17-1.91h-.59c.07-.22-.1-.61-.08-.73.03-.15.49.04.17-.59l.32-.18c-.74-.42-1.28-1.11-2.09-1.5h.42c.05-1.02-1.27-.9-1.99-1.19.15-.86.1-.84-.6-1.32l-.08.5c-.62-.42-.4.4-1.16.16v-1.5ZM438.92,186.93c.07-.12.69-.14.3-.45l-.84-.08.17.33c-.91-.25-.64.47-.87.64-.16.11-.65,0-.97.28l-.16.17.3.89c-.79.29-1.04,1.18-1.98,1.03l.09,1.67-.19.17c-.92-.33-.4.03-.61.29-.11.13-.94.28-1.09.41-.06.05-.08,1.07-.15,1.27-.07.18-.3.2-.33.25-.23.44-.58,1.5-1.07,1.63l.33.5c-.62-.12-.73.11-.96.62l.46.89-1-.16,1,.83-1.34-.33.17,1c-.19-.22-1.05.1-1.13.2-.09.12,0,.43-.12.62-.1.17-.43.22-.56.45-.25.41-.38,1.11-.68,1.5-.34.44-.62-.08-.34,1.08h-.5s.17.5.17.5h-1s.33.67.33.67l-.5-.17c.38.62-.18.51-.33.8-.14.25-.1.93-.2,1.02l-.47.03c.17.73-.19,1.38-1,1.34.37,1-.13.71-.41,1.16-.28.45-.5,1.26-.78,1.73-.15.26-1.18,1.49-1.25,1.76-.12.47.08.74.05.95-.02.14-.72.35-.6.8l.82.94-1.34-.5.17.5c-.9,0-1.22,1.25-1.17,2.01.87-.28,1.22.58,2.23.33.06-.02.32-.61.95-.33v-.84s.83.5.83.5l-.5-.83.59.16c.35-.22.14-.35.08-.66.41.23.76.17,1.09-.17l.09-1.17.67-.08c.05-.66.24-.61.59-1.08l-.27-.51c.66-.34,1.01-.67,1.84-.51l-.28-.93.75-.68-.47-1.06.43-.34.57.34-.5.08c.45,1.46.59-.35.71-.55.06-.09.38-.1.45-.31.12-.35-.31-1.11-.15-1.57l.83.33-.16-.58.66-.34-.32-.5c.74-.52,2.23-.54,1.84-1.85-.39-.21-1.38.36-1.35-.74.5.54.96.13.67-.5h2.17c-.28-.49-.04-.88.17-1.34l-.83-.25c.44-.47.7-1.11.5-1.76,1.05.19.73-.23,1.17-.76.2-.24.65-.41.68-.5.17-.54-.76.02-.98-.1l-.53-.73.5-.58-.5-.08c.51-.62,1.23-.02,1.17.59.56-.4,1.09.13,1.62-.12.47-.22.63-.94.05-.89v-.33c.66.15.48-.36.76-.66.55-.61.71-.75,1.08-1.47.4-.78.2-.89,0-1.71l.5.1c.29-.5,0-.96.67-1.18v-.33s-.51-.25-.51-.25c-.05-.33.39-.09.5-.17.05-.03-.03-1.04-.34-.92v-.25s.34-.08.34-.08c-.3-.08-.56-.9-.47-1.06ZM177.5,187.57c.35.02.63.06.83-.25l-.25-.25c-.16.28-.62.24-.58.5ZM172.82,188.74h-.25s-.25.33-.25.33l.67.17-.17-.5ZM408.23,192.8c-.23-.18-1.12-.08-1.46-.21v.5c-.52.01-.73-.42-.95.17h-.31s-.66-.51-.66-.51c-.34.39-1.23.27-1.44.42-.15.11-.09.41-.21.55-.06.07-.31.03-.44.16-.25.24-.85,1.22-.84.05l-.75.33.25,1.18-.5.08.33.51c-.37.24-1.13,1.02-1.23,1.41-.06.24.13.57.07.68,0,.01-.22-.12-.33-.06-.63.31-1.77,1.68-1.34,2.4-.39-.04-1.12.33-1.27.68-.13.3.09.49.05.64-.01.04-.57.58-.61.66-1.86,4.21-2.79,10.23-3.32,14.37-.21,1.64.06,4.99.5,6.61.1.37.89,1.81.9,2.04.02.21-.23.48-.22.67.03.33,1.12.9,1.11,1l-.5.33c.41.05,1,.86,1.1.89.13.03.39-.13.61-.09.95.17,1.73.7,2.72.64.43-.03,1.59-.26,1.96-.39.63-.22,1.02-.99,1.78-.98l.02-.65c1.13.48,1.9-.59,1.5-1.67l-1.31.19c.01.75-.96.68-.69,1.31l-.5-.17.17.84c-.36.17-.96-.07-1.23.02-.16.05-.94,1.12-1.5.97-.2-.05-.33-.38-.57-.45-2.2-.65-2.35-1.36-3.78-2.83-.15-.16-.96-.21-.96-.8l.27-.41,1.08.33c-.23-.6.06-1.45,0-1.91-.03-.27-.34-.57-.4-.96-.11-.69.38-1.39-.77-1.65-.14-.44.25-.29.41-.5.49-.65.07-1.27.14-1.73.2-1.22.08-.57-.04-1.54,0-.05.06-.95.07-1,.12-.46.72-.33.77-.52.08-.3-.13-.73-.1-.99.07-.63.08-1.34.14-1.8.03-.22.42-.57.28-.95h.83s-.67-.33-.67-.33l.51-.6-.34-.74h.5s-.17-.67-.17-.67l.84.16-.34-.83c1.48.45.68-2.35.84-2.51.64-.18.52.49,1,.67-.12-.59.17-1.35-.33-1.76.7-.72,1.29.94,1.02-.91l.99-.35-.33-1,.67.16-.17-.5c1.22.12.59-.15.83-.41.5-.54,1.63-.16,1.51-1.1l.5.17c-.13-.74.58-.66,1.04-.86.2-.08.31-.56.97-.32-.04-.35-.32-.58.08-.83.3.84.44.54.97.83.11.06.1.34.22.35.41.03.81-.35,1.44,0,.05.03.67.77.71.84.1.18.42,1.01.53,1.28.3.76.07,1.72,1.06,1.98.17.46-.31.38-.34.53-.02.08.04,1.42.07,1.57.06.3.42,1.4.77,1.34l-.33.5.67.26-.75.08c-.4,1.16,1.05.43,1.25.92-.37.26-.47.54-1,.42-.18.96.58.8,1,1.34-.64-.04-.42.56-1.17.17l.33.66c-.78.19-.62,1.88-.94,2.6,1.09.91.49.5.14.78-.13.11-.63,1.37-.67,1.59-.05.29.19.7-.07,1.02-.86-.1-.52.23-.8.6-.46.6-.91,1.22-1.49,1.69l.82,1.07c-.33-.09-.8.17-1.06.12-.16-.03-.28-.27-.52-.29-.13-.01-.05.24-.2.34-.6.39-1.01.85-1.23,1.58-.16.52-.1,1.15-.33,1.67l.34.26-.83.42c.03.38.41.59.76.6.22,0,.36-.62,1.14-.2l.27-.49-.5.17-.17-.83c.75-.1,1.01-.68,1.84-.34-.48-1.03-.53-2.02.67-1,.05-.5-.32-.68-.66-.92l.49-.16.68.25-.17-1.17c.89.17.55-.23.73-.44.17-.2.79-.62.86-.73.04-.08.09-1.39.17-1.5.35-.54,1.19-1.46,1.53-2.08.74-1.33.87-1.92,1.09-3.33.21-1.37.73-2.78-.18-3.96h.67c-.58-.66.07-1.43-.51-2.25.81-.24-.05-1.6-.11-2.04-.07-.56.1-1.63-.05-2.28-.04-.17-.7-1.29-.83-1.72-.2-.69-.19-2.12-.34-2.8-.03-.12-.27-.09-.3-.19-.08-.26.09-1.22.1-1.57-1.12-.6-2.39-.98-2.81-2.29l-.85.09c.15-.25.59-.26.12-.63ZM271.99,196.6l-.17-.67h-.16s0,.67,0,.67h.33ZM353.09,197.94v.34s.67,0,.67,0v-.34s-.67,0-.67,0ZM354.1,198.95h-.5v.33h.5v-.33ZM205.41,199.97l-.48-.19c-.07.32.21.45.42.67l.06-.48ZM207.43,200.95l-.25-.61-1.09-.06-.17,1.5.34-.67.67.5c.07-.25-.29-.86.09-1,.4-.15.11.4.41.33ZM175.01,203.11c-.16-.83-1.21-.39-1.86-.48-.07.43.36.51.67.5l-.17.33h1.51s-.67.59-.67.59l.5.75-1-.16c.21.89.64.36,1.23.39.12,0,.27.25.5.25.38,0,.45-.47.55-.48.38-.05.64.35.89-.07-.12-.25-.48-.17-.62-.3-.27-.25-.2-.91-.24-.94-.18-.17-.8.12-.84-.51l-.46.14ZM273.99,203.46h-.5s0,.67,0,.67h.16c-.03-.32-.03-.57.33-.5v-.16ZM174.16,204.29l-.67-.67-.17.67h.84ZM180.84,204.8l-1.17-.17.5.17c.18.84-1.29.77-1.84.67l.33.33-.34.09c.37.54.31.86-.16,1.34.56.64.61.02.79-.07.21-.11.45-.08.71-.27.21-.15.08-.72.73-.22.27.21.32.3.27.65l-.58-.5-.42.66c.57-.02.86.28.84.84l.5-.17.09.66,1.42-.33v.5s.5-.17.5-.17c-.1,1.08-.07,1.16.92,1.51l.09-.5.67.17-.17.66c.85.21,1.52,1.04,2.09,1.68l1.17-1c.85.99-.53.52-.75,1.09-.05.38.39.25.55.63.09.21-.04.41-.05.61l.66.2c-.4,1.02.78,1.14,1.34.56.15-.16.13-.41.22-.52.16-.19.68-.28.61-.64-.05-.3-1.24,0-1.72-.25-.53-.28.18-1.27.55-1.43l-.68-1.16.33-.08v-.33s-.33.08-.33.08l.5-.75h-1.67s.15-.65.15-.65c-.49-.14-.63-.69-1.16-.36l.17-.5-1.82.14c-.27-.51.06-1.15-.69-.98l.17-.33-1.42-.17c.15-.6-.1-.83-.34-.16l-.33-.65-1.09.31.17-.5-.67-.17.33-.5ZM176.5,205.64h-.83c-.07.22.15.56.41.5l.42-.5ZM245.06,207.14c-.18-.2-.47-1.14-.83-.58l.83.58ZM177.67,206.47h-.67s0,.25,0,.25l.25.25.42-.5ZM185.7,207.48h-.67s0,.33,0,.33c.31.04.58,0,.67-.33ZM203.42,208.14h-.5v.33h.5v-.33ZM190.04,214.83l.83-.25-.41-.41-.42.67ZM345.4,214.33h-.33v.5h.33v-.5ZM189.04,215.5l-.67.42v.25s.83-.25.83-.25l-.16-.42ZM190.71,216c-.44.05-.81-.12-1.17-.34l.12.5c.35-.07,1.18.52,1.05-.16ZM421.66,218.18c.19-.16-1.56-1.71-1.68-1.76-.12-.05-1.45.01-1.5.09.59.95-.68,1.18-1.07,1.85-.31.53-.23,1.45-1.09,1.68l.32.65c-.9.02-1.85,1.38-1.68,2.17-.88-.05-.52.5-.71.88-.33.68-.56,1.25-.85,1.92-.04.1-.58.37-.61.5-.08.37.03.83,0,1.22.8-.38.73.28.95.34,1.09.29,1.56-.95,2.73-.67-.18-.29-.18-.68.25-.67.14,0,.09.3.26.41.81.53,1.11-.05,1.34,0,.38.08.46.57.78.73.31.16,2.51.47,2.73.3.17-.57.3-1.15,1.05-1.06.29.04.5.38.73.43.31.07.7-.21,1.05-.13v.5s-.5.17-.5.17c.31.02.61.14.92.17,1.81.18,3.89.1,5.69,0,.96-.05,1.92-.3,2.92-.18.11-.57-.42-.19-.75-.5-.1-.09-.66-1.27-.58-1.34.66.07,1.45-.1,2.08,0,1.74.3,1.09.37,2.99.21.31-.03,1.29.22,1.45.11l-.33-.75,1.17-.67c-1.11-.1-2.3.12-3.41.27-.25.03-.42.28-.65.28-1.02.01-2.36-.63-3.55-.47-.59.08-.58.46-1.08.51l-.27-.66c-1.48.39-2.81-.88-4.39-.49l-.02.81-1.17-.17.5-.33c.08-.35-.09-.41-.42-.42-.18,0-.39.08-.57.1l-.02.82c-.59-.31-1.74.24-2.23.17-.11-.01-.09-.31-.22-.34-.51-.12-1.11.15-1.65-.34l-.5.34c-.47-1.38-1.96.04-2.61-.74-.26-.31.06-.29-.52-.65-1.05-.65.98-.83,1.2-1.04.17-.16.12-.48.2-.55.06-.05,1.19-.45,1.32-.64.12-.18.14-.64.24-.9.09-.23.37-.47.39-.61.03-.18-.58-.92-.29-1.37l1.65-.19ZM191.18,216.55c-.34-.18-1.02.13-.8.62l.5-.33-.09.5.59.16.17-.84-.3.12c-.04-.06-.03-.22-.07-.24ZM189.88,216.84h-1s.15.74.15.74l-.65.27c.37.91-.18.48-.33,1.17l1.17-.33-.17.33c.6.29.54-.12.85-.26.32-.14.59.22.83-.16-.34-.93-.88-.33-1.5-.25l.31-.19c.06-.07-.12-.42-.08-.66.07-.42.56-.18.43-.66ZM328.01,217.84c.33-.09.38-.36.33-.67-.33.09-.38.36-.33.67ZM327.01,218.18h-.33s-.17.5-.17.5h.5s0-.5,0-.5ZM187.37,218.68h-.67s0,.33,0,.33l.67-.17v-.16ZM296.74,218.84h-.5c.53.52.06.59,0,1.17.67.02.5-.73.5-1.17ZM310.95,219.68c.1-.31.11-.53,0-.83h-.16s-.17.83-.17.83h.33ZM191.21,219.85v-.67s-.67.17-.67.17l.08.5h.58ZM298.24,219.18c-.65-.09-.03.68-.67.75l1,.25c.07-.27-.23-.1-.29-.19-.13-.21-.02-.56-.04-.81ZM187.44,219.59l-.91.64.28.4.91-.64-.28-.4ZM189.38,221.52c.57-.19.19-.61.18-.94,0-.36.31-.65-.1-.9l-1.41.59.16.41c-.66-.06-1.23.37-1.84,0l.5.42c-.47.22-.59.37-.5.92.27.06.17-.33.32-.42.12-.08.38.11.56.06.27-.07.39-.42.63-.54.43-.22,1.1-.07,1.16-.76l.33,1.17ZM300.2,219.74c-.31-.15-.74-.11-.95.2.5.53,1,.55,1.67.42.12-.55-.32-.22-.62-.39-.05-.03-.05-.21-.09-.23ZM306.44,219.68h-1c-.1.52.16.53.5.75-.13.37-.94-.09-.83.59l1.67-.17-.5-.17.17-1ZM308.94,220.52c-.95.4-.91-.29-1.67-.5v.83c.55-.05,1.6.59,1.67-.33ZM302.26,220.18h-.83v.33s.67.09.67.09l.17-.42ZM310.33,220.46c-.1-.05,0-.33-.13-.28-.91.95.14.85.89.79,1.07-.08.4-1.2-.04-.31-.22-.13-.5-.09-.72-.21ZM302.47,220.26l-.06.29,1.13.22.06-.29-1.13-.22ZM304.43,220.35l-.67.08c.18.26.36.29.67.25v-.33ZM240.04,220.69l-.33.08.02.56.81.19.17-.67-.57.18-.1-.35ZM189.21,221.52l-.25-.33-.41.25.67.08ZM168.6,221.9c-.21-.09-.41-.05-.63-.05.3.55.86.91,1.51.83-.14-.11-.82-.76-.88-.79ZM216.8,223.19c-.75-.2-.91-.2-1.26.51l-.66-.35-.92.83c.95-.48,1.53.24,2.34,0l-.08-.33-.42-.08,1-.59ZM352.09,223.03c.4.95,1.15.18.58,0-.16-.05-.4.01-.58,0ZM172.65,223.69c-.09-.33-.36-.38-.67-.33v.33s.67,0,.67,0ZM359.11,224.36v.84s.33,0,.33,0v-.84s-.33,0-.33,0ZM229.34,224.53c-.47-.36-.43.72-.46.79-.42,1-1.11.51-1.19.57-.07.05-.51.77-.11.82.48.07.94-.72,1.43-.11.19.24.4-.32.42-.47.02-.16-.02-1.54-.09-1.59ZM337.88,224.87c-.45-.14-.26.25-.46.33-.42.17-1.07.11-1.54.27-.46.16-.68.74-.98.89-.26.14-.8.11-.97.35-.08.11-.18,1.66.43,1.59v.25c-.42-.23-.79.57-.76.85.02.21.54,1.38.75.86-.11-.6.77-.26.68-.87-.71.69-1.11-.4,0-.17l-.08-.33-.59.16c-.04-.8.71-1.39,1.32-.74.12.54-.43.94-.45.99-.04.12.22.85.14,1.08.34-.1.29-.76.66-.92.16-.07.47.14.51.08.15-1.26-.1-.79-.46-1.03-.09-.06-.08-.21-.13-.3l.26-.92-.5-.17,1.26-.07c.4-.69,1.05-1.33.91-2.19ZM335.2,225.37h-.67s0,.16,0,.16l.67.17v-.33ZM167.8,227.88c.7-.41.84-1.1.83-1.84-.54.3-.78,1.24-.83,1.84ZM439.72,226.7c.61,0,.61-.5,0-.5v.5ZM398.58,226.87c-.73-.13-.1.71.17.5l-.17-.5ZM227.66,229.54c.32-.69-.38-1.2-.24-2l-.75.58c.35.44.59.84.5,1.42h.49ZM229.17,228.21l-.81.19-.02.64c.4-.27,1-.18.83-.84ZM359.95,228.21c-.93-.18-.54.29-.7.46-.15.16-.66.07-.8.29l.42.37.74-.3-.09-.49.43-.33ZM227.34,231.72l.75-.33-.34-.84-.42,1.17ZM263.12,230.72h-.5s0,.5,0,.5l.5-.17v-.33ZM198.74,232.22l.33-.92-.33-.25-.34.5-.33-.33v.83s.49-.15.49-.15l.17.32ZM240.21,231.39h-.5s0,.25,0,.25l.42.42.08-.67ZM334.2,232.22l-.67-.33v.67s.67-.34.67-.34ZM263.46,233.56l-.81.03-.19.64,1-.17v-.5ZM261.79,233.73c-.42-.04-.56.27-.5.67l.5-.42v-.25Z"/>
        <path d="M254.54,200.78c-.22.02-.45-.01-.67,0,.62-.59,0-.67,0-1.34l.42.5.33-.33c.24.15.22.26.25.5-.11.04-.35-.03-.5,0,0,.24.15.43.17.67Z"/>
        <path class="cls-1" d="M167.41,227.88c.05-.6.29-1.53.83-1.84,0,.74-.13,1.43-.83,1.84Z"/>
        <path class="cls-1" d="M386.98,186.4v1.5c.77.24.55-.58,1.17-.16l.08-.5c.7.48.75.46.6,1.32.72.29,2.04.17,1.99,1.19h-.42c.81.4,1.35,1.09,2.09,1.51l-.32.18c.31.63-.15.43-.17.59-.02.13.14.52.08.74h.59c.21.26-.18,1.6-.17,1.91,0,.09.29.07.41.41.13.35-.07.89-.07,1.28,0,.49.36,1.33-.22,1.71-.35.22-1.38-.04-1.29.55l1.17-.1c.38.23.13.77.25.93.09.12.4.13.43.28.03.17-.25,1.6-.27,2.02-.03.75.12,1.48-.08,2.22l-.49-.16-.35.57c.55.04.52.28.67.75-.4-.16-.71-.01-1.02.27l.35.82-.48.67.31.42h-.5s.15.82.14.93c0,.1-.54,0-.14.58l-.66.27c.16.61-.17,1.09.32,1.56l-1.17.17.84.75c-.41.2-.74.8-.5,1.25l-1.51.34c.76.84-.22,1.47-.67,2.09-.11.15-.12.4-.23.52-.71.8-2.06,1.46-3.1,1.58l.25.99c-.51.26-.84.76-1.36.99-.42.18-1.01.16-1.31.36-.37.25-.26.68-.42.88-.11.14-.36.1-.5.21-.15.11-.16.39-.29.41-.17.02-.42-.18-.62-.14-.21.04-.45.48-.71.61-.58.31-1.18.16-1.81.2l-.09-.39c-.5-.67-.94,1.04-1.16.88-.03-.46-.44-.63-.84-.67l.67-.5-1.4-.35c-.22.32-.3.58-.78.52l.33.83h-.66s-.26.83-.26.83c-.42-.61-.57-.94-1.41-.85v-.48c-.67.24-.96-.28-1.26.5l-.56-.36.14-.31c-.25-.13-.73,0-.91-.17-.81-.75-1.98-2.44-2.45-3.38-.08-.15-.25-.15-.27-.22-.14-.48-.15-1.05.46-1-.13-.64-.61-.43-.64-.46-.09-.09-.09-.39-.21-.53-.61-.71-1.01-.8-.15-1.86l-.5-.25c.62-.76.07-.8-.09-1.33-.22-.75.49-1.82.54-2.45.03-.38-.24-.95-.12-1.4l-.33.5v-.59s.5-.08.5-.08l-.17-.4c.64-.18.04-.86.63-.97l-.12-.3.5.17c.27-.78.68-1.42.17-2.34l.67-.17-.32-.72c.33-.41.54-.89.82-1.33.07-.12.28-.12.3-.16.06-.11-.18-.68.02-1.03.11-.19.4-.06.47-.13.12-.12-.04-.85.49-.96.83.36.62-.34,1.39-.19l-.83-1.25.5-.08-.17-.58.5.08-.5-.5h1.34s.02-.48.02-.48l.74-.19-.42-1.17h1.34s-.5-.25-.5-.25c.15-.33.77-.2.83-.26.18-.19-.39-1.24.51-1l-.5-.17.17-.84c.42.23,0,.58.67.67-.34-.62.15-.77.25-1.16.16-.61-.12-1.39,1.09-1.02l-.33-1.67h1s-.17-.33-.17-.33l.67-.17-.5.67h.84s-.02-.42-.02-.42c.33-.19.9-.04,1.19-.19.23-.12.86-.8.17-.81l.35-.18-.17-.5.31-.14-.15-.43.75.51.42-.34-.5-.34c.81-.14,1.17.57,2.01.5l-.17-.5h1.16s.18-.67.18-.67l.33.83c.3.07.11-.28.17-.33.05-.05.54.49.83.33-.33-.66.46-1.09.34-.17l.17-.33.67.33v-.67s.5.33.5.33c.05-.42.24-.58.67-.5ZM376.11,198.94c-.53.15.11.62-.49.74l.15.59c-.99-.41-.49,0-.6.17-.07.11-.32.14-.35.2-.12.24.25.77-.56.64l.17.33h-.51c.83,1.61-1.71,1.7-1.67,3.18l.66-.08c0,.64-1.1.97-1.15,1.19-.1.41.7.89-.35,1.49l.33.42-.5-.17.5.67-.51.09c-.14.71.68,2.17-.49,2.08l.34,1.34h-.5s.25,1.18.25,1.18c-.24.55-.87-.08-1.08.49h1.34c-.88,1.26.07,1.42.33,2.26.02.05-.74.28-.33.92l.84-.1.32,1.19c.69-.27,1.06.66,1.31.75.22.08,1.11.09,1.21.18-.96,1.24.94,2.01,1.99,1.48l.02-.65h.84s-.5-.67-.5-.67c.7.14.41-.27.54-.46.12-.17.49-.1.6-.26.08-.11,0-.41.03-.45.05-.04,1.21-.07,1,.32h.33s.09-.34.09-.34l.58.18.34-1c1.08.38.98-.03,1.74-.34.29-.12.63-.06.93-.17l-.33-.25.67-.08c-.24-1.31,1.11-1.09,1.46-1.56.45-.61.43-.8,1.16-1.44.25-.22.72-.04.57-.69.72.43.52-.39.89-.95.78-1.17,1.35-1.58,1.78-3.16.31-1.14.88-2.69,1-3.85.1-.99-.05-2,.02-2.99.06-.86.49-2.01.42-2.85-.03-.42-.47-1.15-.42-1.66.02-.22.28-.41.28-.51,0-.11-.73-1.7-.82-1.97-.14-.41.02-1.03-.46-1.22l.17-.4c-.65-.04-1.29-.49-1.34-1.17-.58.35-.41.03-.57-.09-.11-.09-.54-.45-.6-.41l-.17.67-.67-.17.08.5-3.14-.5c-.15.44-.35.17-.41.21-.22.14-.33.88-1.04.46l.67.33-.16.42-1.07-.07-.36.82-.58-.17.33.67-1.19.08-.15.58.5.17h-.84s.17.67.17.67c-.51-.23-.6.53-1.23.16l-.11.34-.67-.33.33.67-.84-.08.83,1.09-.83-.17.17,1.17-.67-.16M376.11,192.93l-.67-.17.42.5h.25s0-.33,0-.33ZM370.59,212.32h-.33v.5h.33v-.5ZM370.59,215.67c-.25-.06-.35.07-.5.25l.25.41.25-.67Z"/>
        <path class="cls-1" d="M254.87,200.12c.02.13-.11.44-.05.64-.09.05-.19.02-.28.03-.01-.24-.16-.43-.17-.67.15-.03.39.04.5,0Z"/>
        <path class="cls-1" d="M250.86,204.3s-.16-.65-.45-.84c-.57-.39-1.5-.27-1.55-.33-.03-.04.05-.31-.05-.45-.16-.25-.86-.29-.63-1.06l.65.15.46-.65.49.33c.3-.27.32-.66-.08-.75.16-.32.66-.16.8-.29.09-.07.05-.41.19-.56.19-.22.5-.16.64-.29.06-.06.03-.26.11-.38.06-.09.26-.06.26-.07.04-.06-.66-.64,0-1.25.41-.38.24.46.67.25l.19-.67c.79.29.83-.26.23-.67l-.08.33c-.95-.04.13-.88.22-1.05.23-.45.11-.91.61-1.21l-.5-.25.68-.6c-.06-.3-.16-.59-.51-.57l.33-.17-.33-.33.67-.17c-.81-.14-.49-.69-.54-.81-.01-.03-.47-.02-.29-.53l.33.33.17-.58-.5-.17c-.07-.19.47.07.25-.25-.46-.67.07-.15.09-.42.02-.3-.34-.77-.68-.75l.33-.41-.84-.33c0-.11,1.57-.36,1.17-.75-.99.12-1.06-.89-2.01-.67-.08-.25.65-.13.33-.5-.02-.03-.44-.14-.63-.28-.43-.34-1.03-.88-1.44-1.17-.37-.25-.39.26-.44-.64-.35-.07-.69.02-1.04-.09-.14-.04-.13-.27-.21-.29-.21-.07-.83.43-.6-.35l-.48-.02.17-1-.67.17-.33-.67-.1.67.59.67-.83-.33c.14.32.48.07.33.67l-.67.08c.49.45.04.84.1,1.22.07.44.49.3.4.77-.13.71-.73.33-.99.87.41.65.27,1.14-.03,1.81l.3.13-.12.3.5.17c-.71.07.11.93-1,1.09v.42s.67-.17.67-.17l-.33,1,.75-.34.59.75-.84.25.5.17-.67.33.5.17c-.08.78-.6.62-1.17.5.24.32.32.43.17.83.38.21.53-.84.83-.5.06.07-.52,1.14.16,1.59-.37.44-1.39.5-.48.83-.56.84,0,.95.01,1.51,0,.3-.27.2-.31.33-.13.47-.42,2.33-.49,2.86-.1.84.36,2.1-.39,2.82l.33.42h-.67c-.12.54.35.17.67.34-.16.42-.06.64.17,1-.15.12-.8-.46-1.17.3-.4.82.25.56.3.59.85.51-.33,1.16-.96,1.29-.08.86.82-.15,1,0,.33.27-.35.37-.34.41.8.74.94,1.72.59,2.77-.19.55-.24-.35-.5-.17l-.42.59.79.28c.25.86-.22,1.68.21,2.64h-.5c-.04.4.4.56.46.94.08.6-.45.79-.46.84-.09.49.76,1.37-.5,1.73l.02.32c.08.01.24,0,.27.05.07.1.14,2.15.12,2.5-.02.36-.38,1.6-.37,1.7.03.29.39.56.3,1.03l-.51.19.1,1.74c-.11.53-.77.08-.59.83-.4-.24-.77-.13-1.07-.17-.16-.02,0-.49-.44-.33.28.98,1.06.69,1.84.5v1.5s-.5,0-.5,0c.69,1.03.37,2.02-.83,2.17l.08-1c-.65.05-.79.39-1.17.84l-.74-1.27.65-.98-.66-.26v-.99s.5,0,.5,0v-.67s-.76.11-.76.11l-.24-.45h.83s-.18-.91-.18-.91l.34-.26-.83-.5.52-.1c.35-.45-.37-1.93,1.15-1.74v-1.34s.33.17.33.17c-.33-.62.8-.82.09-1-.48-.13-1.03-.13-1.5-.34-.12.14.24.71-.25.59v-1.09s.67.5.67.5l.16-.6.68.1c.05-.04-.78-1.06-.84-1.09-.22-.13-.48.19-.5,0-.03-.27-.11-.46.24-.4.36.06.9.3.77-.43-.03-.16-.42.03-.34-.25l.66-.25-.99-.26-.18-1.08c.01-.21.49.29.67-.17.27-.69-.68-.15-.5-.75.83.16.97-1.28,0-.84v-1.34s.34.67.34.67c.5.12.27-.33.49-.6l-.32-.15.34-.59-.65-.19c-.11-.37.07-.85-.02-1.2-.03-.13-.34-.11-.34-.19.02-.24.41-.41.45-.46.03-.05-.09-.2-.06-.25.24-.42.59-.16.11-1.12l.34-.19-.13-.37.31-.11-.51-1.58c.19.03.34.63.67.33.23-.21-.78-.91-.67-1l.84.33c-.23-.76-1.03-1.42-1.17-2.26-.09-.54.49.08.67-.08l.34-.75-.56-.09-.27.34c-.22-.63-.36-.84.42-.53l.19-.21c-.11-.61.13-2.03-.12-2.47-.11-.19-.43-.04-.32-.37.91-.27.2-1.05.24-1.44.03-.31.42-.32.43-.43,0-.1-.18-1.86-.21-1.99-.03-.11-.3-.07-.29-.15.01-.2.2-1.3.25-1.62.09-.52.87-.85-.26-1.15.09-.33.75-.24.34-.74-.17-.2-.5,0-.51-.18l.17-.75.25.33c.34-.6.07-.87.92-1.09l-.51-.34.34-1.25-.67.33-.33-.83c.5-.21.33-.48,1-.17-.22-.94.97-1.05.03-1.75l.47-.67-.64-.11c-.52-.96.14-.51.28-.66.04-.04.2-1.15.19-1.21-.07-.29-1.06-.63-1.16-.95l.66.1.35-.19-.33-.67c.01-.12.44-.25.57-.43.15-.21.73-1.58.8-1.63.09-.07.33-.02.46-.03l-.33-.5c.5-.13.97-.03.84-.67l.5.17-.17.5h.67c.1-.51-.46-.33-.65-.77-.32-.76.93-.12,1.15-.23l-.33.33c.32-.05,1.01-.19,1.14.2.04.14-.43.78-.13,1.14l.42-.67.17.34.17-.34h.25c.12,1.26,1.78-.19,1.17,1.09.42.43.89-.29.68.74l.81.02c-.01.75.52.57.7.77.13.16.28.85.34.89.06.04.42-.14.67-.09.43.09.15.63.82.26.05.71.75.66.5,1.51h.67s.08.5.08.5c.19.07-.08-.47.25-.25.57.39,1.14.69.84,1.42l.5-.5c-.09.55.44.16.84.33l-.13,1.13c.5.06.52.73.68.84.33.24.54-.34.36.71l.77.16c-.08.58-.12.91.12,1.46.28.64.94.36,1.05.63l-.66.33c0,.1.65.18.48.81-.03.13-.26.09-.28.19-.05.26.11.9-.08,1.22-.11.18-.73.17-.64.79.5.14.4.41.19.85l.32.23-.67-.17.25.67.25-.33c-.08.16,0,2.52-.33,2.17l-.17-1c-.34-.04-.79.67-.65.82.13.13.68.04.65.35l-.47.08c.26.31-.33,1.03-.58,1.2-.11.08-.37.03-.56.11-.12.05-.08.45-.89.11-.12.47.38.41.67.5,0,.32-.19.71-.5.83-.03-.24-.01-.34-.25-.5l-.33.33-.42-.5c0,.67.62.74,0,1.34.22-.01.45.02.67,0,.01.22.05.61-.16.76l-1.51.08.17.67h-.51s.09.5.09.5l-1.01.15.09,1.35c-.2-.04-.74.06-.84,0,.2.22.43.1.33.5-.24-.23-1.22.54-.87-.09l-.46-.08c-.1-.21.71-.19.33-.5-.05-.04-.88.12-.97.21-.07.08,0,.32-.08.4-.14.18-.64.19-.8.47-.01.57.8-.31,1.17.08l-.83.17.33.33c-.59.05-.81-.21-1.09-.66-.34.74-.4.31-.75.39-.23.05-.37.28-.58.28-.1,0-.05-.28-.19-.33-.12-.04-.83-.01-1.06-.18.17-.47.84-.43,1.17-.67-.04.1.03.35,0,.5h.33s0-.67,0-.67c-.01-.02-.33.15-.33.17.03-.02-.13-.49.5-.34l-.33-.5.83.33c-.33-.52.31-1.14.76-1.34.39-.17.17.47.32.67.15.2.8.13.77.66l.99-.5c-.02.41.35.49.51.67ZM242.83,181.72l-1,.17c-.13.54.51.34.59.49l-.09.51c.28.32.51-.62.49-.65-.06-.07-.38.11-.32-.18l.33-.34ZM242.66,183.06l-.67.17.08.32.67-.17-.08-.32ZM244.6,189.28l-.27.13.37.73.27-.13-.37-.73ZM254.03,190.08l-.42-.5-.25.25.67.25ZM241.16,203.29h-.67s0,.25,0,.25l.33.25.34-.5ZM243.08,210.23c-.08-.11-.1-.42-.25-.17-.04.33.19.63.5.75.13-.46-.13-.41-.25-.58ZM242.16,210.99h-.33v.5h.33v-.5ZM241.66,211.32h-.5v.33h.5v-.33ZM242.79,214.53l-.63.21,1.17.42-.54-.63Z"/>
        <path class="cls-1" d="M350.69,214.83c.45-.09.36-.54.67-.33.02.01-.02.23.05.27.57.33,1.23.65,1.58,1.27.16.29-.17.66.54.79v-.5c.48.04.27.94.34,1h.66c-.15.98.5.79.8,1.05.13.11.11.36.21.51.08.12.3.12.31.14.04.11-.26.43-.06.81.25.48,1.04.35,1.11.42.18.17.26.87.44,1.21.09.16.28.2.36.35.47.86.2,1.64.85,2.37-.11.1-.75-.32-.84-.42-.2-.22.12-.65-.33-.75.13.6-.31.77-.5,1.23.53.86.97.17,1.66.1-.21.52-.58.98-.34,1.56.06.13,1.07.21.51,1.28l.33-.67c.57-.15.32.62.17.89-.12.2-.49-.07-.17.61l-1-.16.17.67-.67-.17v.67c-.7.11-.27-1.3-.84-1.17l.23-.15.77.15-.32-.75-.78-.42-.32.34-1.76-1.17c.36-.25.71.64,1,.33.05-.06,0-.52-.08-.67-.3-.5-1.54-.28-1.75-1.09l1.17-.41c-.48-.31-1.14.22-1.34-.33h.67c.3-.27-1.78-1.25-2.1-.86l-.17-.32c-.46.35-1.06-.28-1.34-.66-.23-.33-.19-.63-.33-.84-.24-.36-.8-.17-.41-1.01-.39.3-1.47-.36-1.01-.76l-.5-.08.33-.5c-1.11.09-1.32-1.31-1.84-1.93-.24-.29-.97-.55-1-.6-.06-.1.17-.35.13-.46-.02-.04-.7-.44-.76-.56-.04-.08.15-.68-.1-.93-.05-.05-.25-.04-.38-.11-.07-.04-.08-.2-.1-.22-.07-.03-.79.27-.8-.13,0-.29.51-.18.66-.08l-.5-.42.5-.25c-.45-.13-.32-.53-.91-.17l-.09-.5c-.62-.15-1.11.2-1.63.3-.33.06-.63-.32-.88.12l.51,1.16c-.99.27-.66,1.81-1.09,2.44-.24.35-.36-.16-.59-.17v1.07s-.51.1-.51.1l.14.3c-.54.2-.89.63-.98,1.2l-.83-.17c.16.42.84.6,1.23.48l.27-.38-.16-.76.66-.17c-.12.32.05,1.17-.03,1.39-.08.24-.97.67-1.14,1.37l.5.17c-1.29.73-.21,3.14-1.5,3.6.24-.76-.19-1.44-.84-1.84.5,1.55-.73.99-1.34,1.27-.37.17-.56.89-1.17.73-.42-.43,1.19-4.2,1.41-4.93.22-.71.08-1.27.53-2.08.07-.13.38-.14.41-.29.08-.4-.38-.75.32-1.14l-.34-.17c.27-.59.57-1.06-.16-1.34l.83-.58-.83-.17.83-.02v-.48s.51.17.51.17c-.14-.7-.33-1.31.67-1.34l-.5-.18c-.13-.52.31-.71.32-.78.05-.21.16-1.46.2-1.52.08-.1.4-.1.43-.27.02-.11-.15-.39-.11-.65.08-.59.27-1.19.33-1.79l.67.17c-.07-.4.14-1.57.37-1.89.25-.34.71-.31.81-.53.33-.75-.76.04-.67-.75l.51-.11c.06-.73.04-1.29.49-1.9h.33s-.17.5-.17.5c1.04-.64.21-.67-.37-1.01-.17-.1-.28-.09-.13-.32.51-.32,1.03-.28.83-1.01l.5.17-.16-1,.5.17c.35-.53-.16-.89-.16-1.26,0-.06.18-.89.21-1.06,0-.04.46-.1.11-.7h.5s.17.5.17.5v-.84s-.67,0-.67,0l.15-.73,1.03-.27-.67-.17.31-.41-.15-.76.67.17c-.13-.67.54-.71.75-1.01.37-.54-.03-1.23.09-1.72.04-.15.56,0,.17-.78h.67s0-.67,0-.67l-.25.33c-.46-.31-.1-.68-.08-1.1,0-.23-.11-.48-.09-.66.03-.31.88-1.21,1.26-1.08l-.67-1h1s-.5-.34-.5-.34v-.33s.5.17.5.17l-.33-.5h.5s-.33-1.17-.33-1.17l1.5.33c-.33-.39-.04-.8-.5-.92.44-.54.39-.85,1.17-.59v-1c1.25-.03.47,1.28,1.17,1.34v.16c-.69-.17-.5.48-.67,1l.66.08c-.31.35-.37,1.52-.34,2.01.02.32.29.22.33.35.05.16-.12.72-.07.98.05.3.55.42-.05.44.34.72-.05.53-.18.78-.41.78-.48.96-.74,1.83-.07.25-.72.33-.78.46.36.05.8.87.5,1.09-.42.31-.46-.5-.83-.33.29.38.39,1.27.33,1.74-.02.12-.24.09-.28.19-.2.6-.88,3.7-1.05,3.84-.06.05-.3-.09-.32-.06-.17.26.14.69-.85.65l.5.58-.83.34c.56.23-.04,1.02,0,1.08.06.07.39-.12.32.18-.65-.07-.7.4-.84.91l.29.13-.12.3h.67s0,.5,0,.5c-.33.24-1.14-.29-1,.34h1.16c-.3-1.08,1.32-.89,1.01-1.67l.51.42-.34.41,1-.17-.33.5,1.51-.08c.41-.24.13-.82.19-.89.08-.09.37.08.31-.2l-1.17-.17v.84s-.66-.18-.66-.18v-.48s.99-.35.99-.35l-.83-.41,1-.92c-.26.62-.04.78.42,1.17l.25-.33.33.5.17-.5c-1-.03-1.32-.86-.81-1.66.29.06.52.06.81-.01-.03-.17-.2-.37-.18-.59l.09-.25c.42-.47,1.14-1.06,1.52-1.49.39-.45.98-1.27,1.26-1.66l.65-.02v-.84s.67.33.67.33c-.55-1.44,1.48-1.08,1.84-2.09l-.33-.16c.45-.24.16-.61.26-.91.15-.46.66-.78.41-1.34.5.04,1.58-1.15,2.08-.98.09.03.07.27.19.3.9.24.49-.62.67-1.17.07-.2,1.12-1.55,1.27-1.62.3-.12,1.38.21,1.8-.06-.18.98-1.29,2.17-.17,2.84-.77-.11-.77.7-1.5.51l.67.42-.67.08v.5s.65-.15.65-.15l.19.48c-.71-.14-1.02.15-1.55.5-.12.08-.12.3-.14.3-.12.05-.58-.34-.81.12,1.03.45.06.62-.05.96-.12.36.15.75.04,1.11l-1.32.52.33.5-.58-.33-.34.67-.17-.34-.92,1.09.66.25s-.33-.82.08-.83c.47,0-.15,1.12.06,1.3-.74.67-1.14,0-1.97.04l-.02.83-.67-.33v.67s-.61-.16-.61-.16l-.06-.51h-.56s-.11.33-.11.33c-.2.23-.36-1.04-.83-.83l.1.84-.77.16.33.33c-.72-.17-.99.54-1.5.67.02.16,0,.34,0,.5l-.66.08c.65.63,1.54-.19,1.85-.74.56.19.59.4,1.15-.01l.5.75-.67.25.33.58-.5.17c.32.39.62-.18.75.42.3-.35.19-.74.74-.83l.34.58-1.43.76-1.07-.67c-.01.64-.59.52-.17,1.34l.57-.16c.59.43.15.76-.32.99-.27-.36.02-.53-.58-.66-.09.12.46,1.34-.17,1.5l-.33-.67-.33,1,.66.08c-.28.42-.58.94-1.15.73,0-.74-1.05-1.39-.86-.14l-.43-.17.09-1.34-.5,1-.5-.67v.84s.67,0,.67,0l-.15.43.32.07c.06.56-.75.14-.67,1l-.66-.76.67-.08c.18-.51-.57-.38-.66-.51-.01-.02.12-.23.09-.37-.03-.14-.2-.28-.2-.37-.01-.55.89-1.01-.73-1.25-.17.53.61.27.67.59.04.19-.28.37-.28.5,0,.26.75.44-.56.67l.67.08c-.14,1.01.67,1.35.84,2.34-.63-.15-1-.4-1.67-.16.03.86,1.07.11,1.17,1l-1.17.17v-.38c-.64-.73-.73,1.22-.68,1.43.04.16.33.16.41.29.16.28.12.92.77.5v1.5s-.5.17-.5.17l.5.34c1.77-.24,1.25.72,1.61.81l1.24.03c.19.62-.97.55-.83.92l.75.59.09-.67.33.67,1.17-.09.16.42-.84-.08v.74s.67-.17.67-.17c.02.11-.03.25,0,.33-.15.03-.34-.02-.5,0-.05.35-.02.33.31.36l-.15.47.48-.27c-.01-.2-.09-.38-.14-.57ZM348.85,183.06h-.5s0,.33,0,.33l.5.17v-.5ZM346.85,197.44l-.25-.33h-.25s0,.5,0,.5l.5-.17ZM350.19,202.12l-.08-.83c-.5.36-.61.78.08.83ZM344.17,202.62h-.5v.33h.5v-.33ZM345.01,203.29c-.31-.04-.58,0-.67.33l.67.17v-.5ZM349.86,203.96l-.08-.67-.25.41.33.25ZM346.34,204.63h-.25s-.25.25-.25.25l.16.42h.33s0-.67,0-.67ZM344.17,208.48h-.33s-.17.67-.17.67h.5s0-.67,0-.67ZM345.34,210.65c.02-.31.05-.74-.33-.84-.02.31-.05.74.33.84ZM343,210.99l-1,.16c.33.03,1.12.5,1-.16ZM343.33,211.82c-.43-.13-.75-.44-1.24-.35l-.26.68h1.42s.08-.33.08-.33ZM353.37,217.51c.05-.32-.2-.56-.5-.5l.17.5h.33ZM351.7,221.69c.04-.31,0-.58-.33-.67-.04.31,0,.58.33.67Z"/>
        <path class="cls-1" d="M200.02,191.75l1-.17c-.1.37-.39.4-.67.5-.12-.09-.32-.19-.33-.33Z"/>
        <path class="cls-1" d="M200.35,192.09c.42.3.39.08.58.64.87-.4,1.01.58.09.2-.08.54.57.74.67,1.34-.54.08-.23-.75-.83-.08.45.31.22.64.16,1.09l-.33-.33c-.08.42-.21.75.24,1.01.27.15.91.08.76.41l-1,.67.5-.09c.03.25.15.41.1.68-.08.42-.55.18-.43.66l.5.33-.49.08.32.84-.33.08c.26.38.46.41,0,.75l.33.17c-.77.32-.34.48-.43.84-.12.53-.72,1.2.03,1.55,1.05.2,1.25-1.4,1.44-1.59.09-.09.4-.06.55-.19.34-.28.14-.83.87-.99,1.11-.24.69.76,1.56,1.06-.13.58-.4.83-1.01.74.17.52.77.16,1.17.33l-.15,1.07c-.06.08-.8.27-.93.28-.06,0-.16-.56-.6-.34-.13.56.47.18.63.6.36.93-1.18.97-.63,2.07l-1-.33.17.67-.67-.33v.67s-1.01,0-1.01,0c.12.64.37.34.58.49.44.3.73.81-.08.68l.17.83,1.17.17c-.18.44-.08.79-.67.67-.09.45.1.24.33.42l-.5.59c.38-.05.87.08,1.23,0,.16-.04.05-.53.44-.33l.34.58c-.51.1-1.13.27-1.17.92.8-.34,1.4.76,1.61.8.28.05,1.12-.19,1.57.04-.02.18-.66.42-.8.45-.29.08-.58.06-.87.05l.1.51c-.65.17-1.25.73-.24.79.6.03.8-.02,1.38.38.32-.06.36-1.43-.08-1.42l1.08-.42c.4.37-.8.54-.42,1,.04.04,1.02.35,1.08.35.55-.05.47-.85,1.6,0l-1.17.33c-.01.26.44.28.48.35.04.06-.22.46-.15.65l1.42.67.16-.34c.69.31.05,1.02.42,1.26l1.17-.09-.13.3.49.51.48-.14-.17.5.67.26-.33.32c.39.59.09,1.13.93,1.25l.24-.32c-.07.47.31.35.67.33l-.17.33,1.51.34-.33,1.17.42-.15.58.48c-.65.24-1.42.59-2.08.15-.23-.15-.25-.7-.59-.48-.09.06.12,1.56-1.33.58l.67-.25-.39-.33.05-.33c-.54-.13-.53.67-.71.8-.49.35-1.72.06-1.73-.64h-.74c.41-.66-.32-.62-.6-.88-.12-.11-.99-.93-1.02-.99-.11-.28.03-.64-.21-.88-.21-.21-.68-.16-.82-.27-.02-.02.1-.34-.13-.61-.23-.27-.47-.17-.53-.25-.09-.11,0-.38-.06-.44-.11-.11-.52.06-.64-.05-.06-.05.03-.33-.05-.43-.07-.08-.57-.16-.9-.55-.22-.27-.18-.72-.45-.96-.18-.16-.51-.12-.64-.32-.3-.48.09-1.24-.99-1.06l.17-.83-1.34-.17v.67c-.91-.24-.57.45-.92.67-.3.18-.26-.71-.58-.33-.38.45.48.56.59.66l.08.25c0,.13-.31.03-.35.19-.08.35.18,1.38.02,1.96-.06.2-.54.08-.68.36l.1.42h.57s-.17,1.17-.17,1.17l-.5-.17c.22.42-.18,1.16.5,1.17v.16c-.69.08-.72,1.17-1,1.76,2.45-.73-.11,1.23.67,2.43h-.5s.42.5.42.5l.25-.34.17.66-.83.42.5.42-.83-.17.17.74-.34.2.14.32c-.32.17-.37.16-.31.58.33,0,.6-.13.5.33h-.67s-.1.93-.1.93c.13.59.72.22.76.25.5.36-.36,1.91-.83,1.59-.49-.82-1.06-1.26-.62-2.3.17-.4.62-.54.46-1.18l-1.18-.88v-.32c1.02-.53-.87-2.31.84-2.43.15-.59-.46-.2-.65-.35-.17-.65-.32-.76.17-1.23-.73-1.1-.01-1.81-.52-2.93l.33-.08-.34-.51.51-.92c-.88.27-1.23-.87-.85-1.4.09-.13,1.55-.64.35-.94l.33-.17-.33-.43-.5.26v-.41s.67-1.01.67-1.01l-.34-.17c.55-.17.08-1.12,1-1.26l-.58-.16-.09-.33c.16.03,1.04-.68.83-.84h-.67s.15-.58.15-.58c-.52-.28-.82-.76-.15-1.01l-.34-.08v-.33c.42.07.27-.38.37-.47.11-.11.63.08.46-.29-.19-.4-.64-.43-1-.25l-.03-.48-.47-.11c.08-.62.72.18.66-.67l.51-.09v-.5s-.49-.01-.49-.01c-.02-.53.82-.92,0-1.24l1-.84-.51-.83.36-.18-.18-.57.51-.09-.67-1.25-.33.17c.26-.73-.22-1.12-.5-1.76l.3-.11c-.27-.61.16-.41.2-.58.16-.69-.85-1.08,0-1.89-.51.05-.28-.57-.45-.94.07-.4.99-.05.79-.49-.07-.16-.4-.27-.47-.54-.05-.17.12-.42.05-.56-.26-.48-1.64-.53.25-1.25l-.66-.75.47-.13c.12.7.52.24.25-.2-.26-.45-1.25-.61-1.06-1.09.1-.24,1.1-.35,1.34-.25.18-.73-.62-.46-.5-1l.33-.17c-.47.08-.53-.11-.67-.5l.84.16-.17-.83.5-.25-1.17-.59.33-.33-1-1,.41.34.42-.17-.16-.4.66-.86c-.34-.25-.7-.42-.66-.92h.5c-.54.7,1.01.04,1.17-.09l-.5-.17.33-.42c-.43.03-.86.06-1.29.12-.38.05-.27-.25-.22-.29l1.51-.17-.39-.31-.11-.35,1.5-.17-.83-.17.5-.67c.34.47.83.77,1.42.64.1-.02.04-.51.41-.3.05.03.42.81.5.92.12.17.41.19.52.37.2.3-.12,1.01-.01,1.39l.33-.17c.27.64-.48.81-.51.95-.07.3.14.6.14.84,0,.35-.48.39.04.88-.28,0-.68.05-.67.42,0,.11.22.06.27.15.16.26-.05.56.57.44v.33c-.32-.14-.49.99-.51,1.26-.03.42.13.16.34.08v.57s-1.67.94-1.67.94c.2.65.72-.22,1,.25-.17.22-.46.25-.67.42-.3.25-.23.27-.33.67h.5s-.17-.33-.17-.33c.11-.02.25.03.34,0ZM204.87,202.63c-.54-.13-1.17-.66-1.67-.08.53-.12.72.42.76.42.05,0,.94-.14.91-.33ZM207.71,216.5h-.5v.33h.5v-.33ZM209.72,219.01l-.5-.17.17.67.33-.25v-.25Z"/>
        <path class="cls-1" d="M292.15,182.08l.52,1.14-.33-.5-.67.17v-.67c-.67-.14.04.48-.42.67l-.42-.33.26.65.73-.15.18.5h-.51s.17.33.17.33h-.84s0,.83,0,.83l-2.34.34.17.33-.43-.15-.1.28-.38-.13c-.55.39-1.65.49-2.56.77-.33.1-1.02-.35-.55.73-.65-.32-.42.07-.63.16-.27.12-.58.14-1.02.32-.84.35-.88.07-1.42.18-.12.03-.11.33-.18.33-.21-.01-.95-.44-1.1-.32l.33.5c-.07.09-1.93.69-2.08.68-.12,0-.01-.48-.34-.35-.45,1.23-.55,1.05-1.75,1.18l.16,1c-.48-.35-.97.2-.67.67h-.5s.34.92.34.92c-.35.15-.39.16-.33.58l.33.08-.67.59.67.33-.49.25c.09.2.27.45.25.67-.03.45-.67.54-.6.83.8.06.72.85.02.43l-.35.99.5.17-.66.18.09.83-.93.42c-.04.22.73.9,1,.75-.26.34-.56.3-.58,1l-.08-1.17h-.5s.17.5.17.5l-1-.33,1.01,1.09.9.07c.5.37-.54.97-.91.84l.5.33c-.37.42-.25.83-.17,1.34l-.84-.08c-.45.19-.48,1.78.18,1.76l-.48.35.15.56-1,.43c-.1.17.55.34.63.6.05.17-.07,1.75-.47,1.33l-.17.41-.42-.51c-.59-.06-.63.38-.58.84l1.17.17-.44.37.11.3-1.08.33c-.05.42-.23.62.24.76-.33.19-.25.54-.35.79-.25.59-.06.38-.18.84-.19.76-.28,1.96-1.13,1.99.22.55-.05.92-.17,1.42-.05.21.04.48,0,.63-.06.2-.47.07-.6.26-.21.3.21.84-.58.68-.06.32.33.08.47.19.38.31-.2,1.24-.26,1.6-.09.54-.04,1.44-.22,1.92-.03.07-.78.98-.79,1.05-.08.44.08,1.5-.2,2.09l-.17-.5c-.41.14-.09.67-.5,1l.33.17-.5.25.5.08c.27.25-1.04,1.18-.17,1.42-.56.42-.45,1.23-.78,1.88-.13.25-.36.25-.44.38-.36.57-.1,1.04-1.28,1.01l.28.51h1.06s.17-.34.17-.34c.28.96-1.08,1-1.51,1.45-.12.13-.57,1.07-.49,1.22l.5.08-.41.41c-.59-.63-.71-1.79-.17-2.5l.58.5-.07-1.01c-.6-.58-1.12.12-1.18.13-.05.01-.49,0-.68.02-.62.06-.02-.88,0-1.07.05-.43.12-2.61.27-2.74l.83.41c.02.38-.39.42-.67.42.55.47-.12,1.26.5,1.17l-.67.83c.68.1,1.24-.35,1.84-.59l-.33-.17.33-.42h-1.17c-.14-.69.95-1.15.81-1.74-.06-.24-1.03-.59-.81-1.1l-.5.17c-.17-.66.78-.29.84-.34l-.14-.31c.58-.12.29-.45.47-.86l-.51-.09-.14-1.51.33-.18c-.41-.97.5-1.1.16-2.07.44-.07.34.08.34.42.01.76-.52,1.22.66.91.18-.41-.26-.28-.3-.41-.03-.1.07-.62.04-.84-.06-.57-.51-.48.26-1.18-.43.05-.36-.96-.27-1.18.08-.21.35-.19.4-.27.03-.05-.12-.35-.02-.6.09-.22.36-.22.36-.24.04-.11-.33-.7-.06-1.15h.76c-.39-.69-.27-1.39.33-1.67l-.3-.64.31-.12c-.25-.5-.19-.91,0-1.41l.17.5.5-.42-.48-.26-.02-.65.67.17c-.48-1.19,1.29-.63.25-1.67l-.25.33c-.02-.4-.02-1,.35-1.25.14-.09.44-.06.47-.1.16-.18-.32-.77.1-.99l.08.5.84-.42-.33-.17.33-.59h-.67s.17-2.01.17-2.01l.67.17-.48-.35v-.38c1.08-.47.54-1.49.91-2.26.24-.5.66-.64.91-1.11l-.34-.33c.63-.39.39-.82.5-1.42h1.17c-.58-.61-.11-1.43-.33-2.17.35-.03.16.83.58.67.26-.1.18-.62.25-.83l.67.17.34-.84-.84-.25c.5-.12.12-.35.34-.75h-.67c-.13-.53.81-.38.97-.76.01-.03.13-.75-.21-.58l-.09.67h-.67s.33-1.26.33-1.26l-.34-.16v-.34s.34-.18.34-.18l-.08-.58c-.19-.26-.7-.1-.98-.16-.14-.03-.16-.4-.44-.42-.22-.02-.88.44-1.32.29l-.36,1.14c-.33-.24-.75-.09-1.06-.17-.19-.05,0-.5-.44-.33v.33c-.51-.53-.55-.03-1.09.02-.45.04-.82-.18-1.26-.18l.17.5.5-.17c.2.83-.64.54-.81.7-.14.13.22.42-.68.69-.69.21-.91.02-1.52-.22l.08.33h-.25s-.09-.51-.09-.51c.94-.44.28-1.31,1.62-1.24.07-.5.74-1.26,1.32-1.09l.09-.5.08.67.84.17-.5-.84c.4.09,1.01-.02,1-.5l.33.33c.03-.16.65-.95.7-.97.21-.08.67.35.8-.2h-.84s.26-.33.26-.33l1.16.48.25-.4h-.34s.26-.42.26-.42l.75.26c.42-.28.54-.67,1.16-.6l-.32-.42c.01-.42,2.09-.54,2.5-.67.3-.09.58-.46.83-.52.21-.05.39.25.61.27.34.03.52-.28.66-.28.09,0,.53.53.7-.17.06-.26-.41-.44.49-.54.31-.03.6.13.91.07l.18-.58,1.32-.02-.33-.33c.41-.23,1-.24,1.38-.38.35-.14.9-.57,1.39-.62.32-.03.96.19,1.17.1.27-.13.44-.61,1.16-.74.49-.09.93.26,1.01.26.22,0,.95-1.25,1.58-.46l-.17-.67c.64-.11.55.61,1,.5l.17-.33.17.33c-.02-.62.99-.06.84-1l1,.67-.16-.67c.45.37.73-.11,1.02-.09.16.01.36.21.57.19.21-.02.67-.48,1.07-.24ZM272.43,190.58l-.48.02-.19.48.48-.02.19-.48ZM272.09,207.14v-.5s-.5.42-.5.42l.5.08Z"/>
        <path class="cls-1" d="M336.87,184.36c.05.08.36-.09.28.28l-.32.09v.33s.24-.13.33-.07c.72.45-.23.57.13,1.06l-.3.35,1.44-.66c.3-.21-.13-.92.56-.84l.17,1c-.52-.3-.52.32-.7.45-.15.1-1.72.29-1.8.22.06-.3.24-.56-.16-.67,0,.5-.43.48-.72.67-.11.07-.11.29-.23.33-.69.19-.64-.86-.97-.02l-.43-.15c.22.94-1,.32-1.01,1l-.17-.32-.47.13-.03-.31c-.64.59-1.41.26-2.16.17l-.34.74c-.55-.05-.95.08-1.43-.25l-.09.5-.92-1.17-.25.5h.48s.02,1,.02,1l.83-.17c.23.18-1.23.63-1.5.33l.17.5h-.84s.33-.33.33-.33l-.6-.12-.74.61c.21-.38-.15-.63.32-.74-.05-1.11-.84-.24-.83-.17.02.22.28.37.28.5,0,.1-.21.24-.22.36-.03.21.22.54.03.56h-1.25c-.02-.26.34-.21.52-.41.29-.32.04-.95-.52-.76.15.82-.16.56-.67.92l.33.17-2.01.92.17.5c-.63-.27-.86.3-.94.32-.12.03-.84.01-1.05.04.13.75-.65.21-.53.96-1.33-.31-1.27,1.34-2.67.93l-.15.65-.51.11.33.25-.67.09c.26.61.04.78-.42,1.17l-.41-.33-.03.48-.48.02.59.83c.13.05-.01-.55.42-.33-.26.96,1.01.67.5,1.67l-.42-.33-.75.67.76.15.15-.29c.83,0,.97.24,1.6.64l-.5.17c.13.52.69-.05,1,.42l-.83.25c.5-.06.79.12,1.09.5l.08-.33c.72-.27,1.18.57,1.78.98.6.4,1.68.71,2.06.95.21.14.28.55.51.66.56.27.54,0,1.39.53.25.16,1.1.21,1.43.58l-.3,1.14.67.17.09-.84c.54-.08.43.32.71.5.13.09.42.04.58.16.37.27.6.92.66.97.16.15.6-.16.46.37l-.59.16.09.34h-.84c.28.74,1.73-.09,2.09-.1.71-.02,1.95,1.89,1.42,2.61l.83-.17c-.06.79.64.79.59,1.6-.01.16-.25.3-.25.33.01.13.38.19.45.28.03.04.14,1,.13,1.05-.07.81-1.22,2.7-1.93,3.18.66.23.38.56-.17.25,0,.97-.88.44-1.25,1.3-.44-.09-.66-.22-.84-.63l-.45,1.06c-.51.38-1.38-.4-1.31.28h-.25s-.09-.33-.09-.33h-.33s-.03.29-.03.29l-.48-.05c-.63.35,1.13,1.06.25,1.59l-.89-.93.07-.75-.6-.16c.23.79-.17,1.31.67,1.84l-.48.03c.07.88-.96.2-1.03,1.14-.63.09-.36-.75,0-.75-1.06-.84-1.6-.3-1.34.91l-1.17.17-.08-.33-.34.5-.5-.83-.17,1c-.24-.61-.71-.49-1.17-.83l.25.5h-4.51s.33-.83.33-.83c-1.03.11-.57,1.23-1.68.76l-.04-.56-.29-.11c0-.38.66-.48,0-1.08h.84s-.17.5-.17.5h1.34s-.33-.83-.33-.83c.59.11,1.21-.23,1.76-.19.44.04-.09.35,1.25.09.98-.19.53-.22,1.06-.44.82-.33,1.92-.19,2.75-.42.63-.17,1.15-.82,1.33-.88.73-.27,2.11-.19,2.88-.17l-.33-.83h.73c.17-.63,1.2.27.78-.83.4.16.53-.33.62-.34.35-.07.83.26,1.22.17-.11-.37-1.3-.26-.84-.83.04-.05,1.08-.2,1.26-.19.32.02.21.53.75.35-.04-.6-.5-.35-.58-.49-.24-.41.1-.38-.59-.6l.51-1.91,1.5-.18-.25-.5c-.12.42-.98.4-1.42.5l.33-.25-1-.75.34-.11c.11-.89-.5-1.36-1.34-1.23l.5-.17-.42-.67c-.25.07.37.62-.17.5-.45-.1-1.01-.86-.75-1.17.29-.35.38.69.67.33.04-.05-.02-.36,0-.5h-1s.5-.17.5-.17c-.18-.69-1.67.42-1.67-.41,0-.19.41.06.34-.25-.38-.01-.74-.13-.67.33l-.24-.31-2.1.31.17-.83s-.81.24-1.1.1c-.2-.09-.21-.36-.36-.44-.3-.16-1.45-.73-1.68-.79-1.05-.27-2.94-.02-2.72-1.72h-.66c-.11-.55.05-.87-.68-.84.16-.53,1.17.43,1-.33-.48-.05-1.05.11-1.5-.09-.06-.03-.91-.89-.95-.96-.06-.1.08-.43-.09-.59-.24-.22-.74-.11-.93-.24-.08-.05-.65-1.58-.68-1.76-.04-.23-.13-2.44-.11-2.57.11-.61.84-1.62,1.58-1.15.09-.33-.34-.44-.31-.73,0-.06.49-1.02.53-1.07.15-.14.57-.14.89-.55.24-.3.05-.48.07-.49.32-.18,1.2-.39,1.82-.78.85-.54.52-.28,1.41-.59.09-.03.85-.85,1.2-.97l.41.33c-.18-.87.25-.58.57-.85.49-.42,1.4-1.16,2.07-1.28.57-.11.95.18,1.27.14.05,0,.71-.69.79-.74.31-.17.74-.2,1.12-.39.25-.12.49-.66,1.04-.55-.12.56.51.83,1,.84.21-1.44,1.16-1.41,2.34-1l-.08-.33c.79.18.52-.29.74-.55.47-.55.73-.23,1.08-.31,1.1-.25,2.04-.49,3.2-.17l.15-.32.58.5v-.5c.21.36.73-.33.77-.34.33-.05.73.29,1.05.41.13.05.36-.1.53,0,.15.1,0,.3.05.39ZM333.3,185.73l.33-.25-.25-.41-.08.67ZM323.1,187.74c.24.05.35-.07.5-.25l-.16-.42h-.16s-.17.67-.17.67ZM328.95,187.74l-.5-.67c-.07.4.08.71.5.67ZM321.09,189.75h-.67c-.01.4-.11.58.33.5l.34-.5ZM318.75,191.75c.05-.25-.07-.35-.25-.5l-.58.42c.21.25.57.15.83.08ZM315.74,192.09c-.1.1.14.5.25.5.46,0,0-.75-.25-.5ZM313.23,194.26c-.16-.05-.25-.24-.5-.17.58.5-.39,1.07-.17,1.34.23.28.53-.59.81-.53-.06-.22-.13-.41-.14-.64.15.05.27.23.5.17v-.33s-.5-.17-.5-.17c0,.11,0,.22,0,.33ZM330.79,211.32l-.83-.34-.17.83c.09.09,1.13-.32,1-.5ZM331.13,211.99l-1,.17v.16s1,0,1,0v-.33ZM328.29,215.5c-.1.1.14.5.25.5.46,0,0-.75-.25-.5ZM323.1,218.68l-.46.08.13.25-.5.33.83-.67ZM316.05,219.04c-.4.07-1.13-.37-1.31.14l1,.34-.17.33h.67s-.19-.81-.19-.81ZM319.56,219.04l-.81-.19c-.04.27.29.1.39.37.08.21-.05.42-.06.63h.5s-.02-.81-.02-.81Z"/>
        <path class="cls-1" d="M407.84,192.8c.47.36.03.38-.12.63l.85-.09c.42,1.32,1.69,1.7,2.81,2.29-.02.35-.18,1.31-.1,1.57.03.1.27.07.3.19.14.68.14,2.11.34,2.8.12.43.79,1.55.83,1.72.15.65-.01,1.73.05,2.28.06.45.92,1.81.11,2.04.58.82-.07,1.59.51,2.25h-.67c.92,1.18.39,2.59.18,3.96-.22,1.41-.34,2-1.09,3.33-.34.61-1.18,1.54-1.53,2.08-.07.11-.12,1.43-.17,1.5-.06.11-.68.53-.86.73-.17.2.17.6-.73.44l.17,1.17-.68-.25-.49.16c.34.24.71.42.66.92-1.2-1.02-1.15-.03-.67,1-.83-.35-1.09.24-1.84.34l.17.83.5-.17-.27.49c-.78-.42-.92.2-1.14.2-.35,0-.73-.21-.76-.6l.83-.42-.34-.26c.23-.52.17-1.16.33-1.67.23-.72.63-1.18,1.23-1.58.15-.1.08-.36.2-.34.24.02.36.26.52.29.27.05.73-.22,1.06-.12l-.82-1.07c.58-.47,1.03-1.09,1.49-1.69.28-.37-.06-.7.8-.6.26-.33.01-.73.07-1.02.04-.22.54-1.48.67-1.59.34-.29.94.13-.14-.78.32-.72.16-2.41.94-2.6l-.33-.66c.75.39.53-.21,1.17-.17-.43-.53-1.19-.38-1-1.34.53.13.64-.15,1-.42-.2-.49-1.65.24-1.25-.92l.75-.08-.67-.26.33-.5c-.35.06-.71-1.04-.77-1.34-.03-.14-.09-1.49-.07-1.57.03-.14.51-.06.34-.53-1-.26-.77-1.22-1.06-1.98-.11-.27-.43-1.09-.53-1.28-.04-.07-.66-.81-.71-.84-.62-.35-1.03.04-1.44,0-.12,0-.11-.29-.22-.35-.53-.29-.68,0-.97-.83-.41.26-.13.48-.08.83-.66-.24-.77.23-.97.32-.45.19-1.16.12-1.04.86l-.5-.17c.12.94-1.01.55-1.51,1.1-.24.26.39.53-.83.41l.17.5-.67-.16.33,1-.99.35c.27,1.85-.32.19-1.02.91.5.4.21,1.17.33,1.76-.48-.18-.36-.85-1-.67-.15.15.64,2.96-.84,2.51l.34.83-.84-.16.17.67h-.5s.34.74.34.74l-.51.6.67.33h-.83c.14.38-.25.73-.28.95-.06.47-.07,1.18-.14,1.8-.03.27.18.69.1.99-.05.19-.66.06-.77.52-.01.05-.08.95-.07,1,.12.97.25.31.04,1.54-.07.45.35,1.07-.14,1.73-.16.21-.54.06-.41.5,1.15.26.67.96.77,1.65.06.38.36.68.4.96.06.46-.23,1.31,0,1.91l-1.08-.33-.27.41c0,.59.81.64.96.8,1.42,1.47,1.58,2.18,3.78,2.83.24.07.37.4.57.45.55.15,1.34-.92,1.5-.97.27-.09.87.15,1.23-.02l-.17-.84.5.17c-.27-.63.7-.56.69-1.31l1.31-.19c.4,1.08-.37,2.15-1.5,1.67l-.02.65c-.77-.02-1.15.75-1.78.98-.38.13-1.54.36-1.96.39-.99.06-1.77-.47-2.72-.64-.21-.04-.48.12-.61.09-.1-.03-.69-.84-1.1-.89l.5-.33c0-.1-1.08-.67-1.11-1-.02-.19.23-.46.22-.67-.02-.23-.8-1.67-.9-2.04-.44-1.62-.71-4.97-.5-6.61.53-4.14,1.45-10.16,3.32-14.37.04-.09.6-.62.61-.66.04-.14-.17-.34-.05-.64.15-.34.88-.72,1.27-.68-.43-.73.7-2.09,1.34-2.4.12-.06.33.08.33.06.06-.11-.13-.44-.07-.68.11-.39.86-1.17,1.23-1.41l-.33-.51.5-.08-.25-1.18.75-.33c0,1.17.59.19.84-.05.14-.13.38-.09.44-.16.12-.14.06-.44.21-.55.2-.15,1.1-.03,1.44-.42l.66.52h.31c.21-.6.43-.17.94-.18v-.5c.34.12,1.23.03,1.46.21ZM403.58,198.4c-.17-.14-.16-.7-.48-.77l-1.24.32c-.05.05.32.63.33.76,0,.04-.56.14-.33.58h.84s-.14-.31-.14-.31c.64-.53,1.08-.19,1.81-.2-.02-.34-.6-.21-.79-.37ZM399.19,201.46c-.32-.06-1.06-.19-1.31.02-.02.02.1.24.05.31-.12.17-.56.29-.56.42-.03.44.6.53.97.4l.19-.81.67.17v-.5ZM398.19,202.96c-.61,0-.61.5,0,.5v-.5ZM397.18,203.96c.11-.12-.05-.66-.33-.67-.28.36.11.91.33.67ZM396.85,204.97l-.69.1c-.1.85-.75,2.6.69,1.57-.95-.88-.06-.74,0-1.67ZM411.73,214.33c-.09-.33-.36-.38-.67-.33.09.33.36.38.67.33Z"/>
        <path class="cls-1" d="M229.95,204.8c.02.22-.04.44.01.66l.49.18-.64.37.14.47c-.49.07-.95.27-.84.84.44-.24.72-.52,1.09,0l-.26,1.51-.83-.5-.1,1.09.35.25.82-.35c.99,1.11-.17,1.13-.24,1.29-.04.08-.17,1.72-.16,1.81.05.47.73.68-.5,1.09-.07.43.34.5.67.5l-.46.58.46.5c-.27.12-.27.63-.38.72-.24.2-.65-.28-.29.53l-1.17.17.26.67.33-.34.72.37c-.13.77.29,1.96-.55,2.31l-.08-.59-.33.18v1.58s-1.51,0-1.51,0c-.17.69.68,0,.84.17v.5c-.25.08-.87-.29-1,.09-.1.29.52.39.76.58.16.12.19.47.36.51l1.39-.34c.05.57.47,1.38-.17,1.75-.41.23-.88.09-1.16.2-.05.02-.92.56-.96.6-.34.35.12,1.15-.63,1.46-.22.01-.37-1.35-.4-1.61-.48-3.89-.37-8.64-.48-12.65-.01-.37.27-.63.26-.84-.02-.31-.3-.63-.3-1.04,0-.76.74-.76-.16-1.17.53-.54-.05-1.07.51-1.17.03-.13-.38-.08-.48-.35-.06-.18-.11-2.57-.02-2.78.1-.22.39-.02.33-.29-.6.06-.81-.34-.67-.9.03-.12.34-.12.34-.18-.02-.19-.39-.61-.42-.85-.06-.51.37-.6.39-.67.04-.13-.22-.91.01-1.17l-.32-.16c.57-.16.24-1.15.28-1.69l-.78-.57.5.08c-.04-.36.26-1.15.27-1.42,0-.55-.13-.33-.01-1.09.02-.16-.11-.35-.09-.48.03-.21.42.01.34-.27-.89.14-.41-.47-.08-.84l.41.33c.09-.51-.21-.88-.5-1.26.65-.14-.03-.93.84-.75l-.5-.17.34-.59c-.44-.14-.36-.31-.33-.75l.5.33c.39-.84-.13-.83-.16-.95-.11-.42-.04-1.05.33-1.31-.85-.31,0-.58.5-.59l-.33-.16c-.15-.56.51-1.64.51-1.92,0-.04-.57-.16-.34-.59l1.17.17v-.5s-.5.17-.5.17c-.06-.43,0-.43.33-.58-.22-.26-.69-.95-.5-1.26.02-.03.47.25.67-.25l-.35-.18c.47-1.35.79-.28,1.18.01.25.18.68.18.8.3.06.05.71,1.31.71,1.38,0,.07-.27.04-.32.18-.23.76.12,1.13.12,1.46,0,.35-.76.61-.47.94.09.1.92.12.67-.5l.5.75-.92-.08-.08.33c.74,0,.89.23,1,.92l-.42.11-.08.31h.49s.03.66.03.66h.49s0,.51,0,.51h-.5s.25,1.35.25,1.35c1.03.48.23.55.24,1.08,0,.18.42-.04.34.25l-.33.34-.49-.15-.35.57.33.08-.29.42.29.5-.34.17.51.18c-.12.77.57,1.48.07,2.25-.13.2-.56.04-.41.5h.33s-.33.33-.33.33h1s0,.5,0,.5c-.4-.32-.29.24-.82.26-.3.01-.46-.45-.68-.17,0,.41.64.48.76.74.08.16-.41.92.06,1.58.2.29.82-.18.69.43-.83-.14-.87.06-1.42.5l.08-.5-.57.02c-.29.08-.03.72-.59.65.26.42.85-.19.67.67l.42-.15c.12.53.44-.03.74.4l-.46.11c-.67.56.03.63-.04,1.05-.02.11-.21.23-.33.26-.02-.15.09-.46-.08-.5l-.42.5c.16-.02.37.04.5,0ZM228.78,183.9l-.67-.17c-.07.32.21.45.42.67l.25-.5ZM229.58,189.38l-.08.35.72.16.08-.35-.72-.16ZM229.45,191.59c.3-.3-.39-.89-.67-.5-.34.48.5.67.67.5ZM230.79,193.09c.06-.31-.18-.55-.5-.5v.33s.5.17.5.17ZM229.45,193.26c.17-.17-.33-.67-.5-.5-.17.17.33.67.5.5ZM227.28,199.61l1.17-.25c-.31-.45-.31-.06-.51-.01-.21.05-.69.03-.66.26ZM229.62,199.78h-1.17s0,.83,0,.83l.34-.33.5.33.34-.84ZM229.12,203.29h-.67s0,.83,0,.83c.22.28.77-.73.67-.83ZM228.95,204.46l-.67.17v.16l.67.17v-.5ZM228.45,205.8h-.5v.33h.5v-.33ZM228.11,220.52l-.42-1-.15.5.56.5ZM227.44,223.86c-.46-.15-.83-.28-.84.33.31.02.73.05.84-.33Z"/>
        <path class="cls-1" d="M438.53,186.93c-.1.16.16.98.47,1.06l-.33.08v.25c.31-.12.38.89.34.92-.12.08-.55-.16-.5.17l.5.25v.33c-.67.22-.38.68-.66,1.18l-.5-.1c.19.82.39.94,0,1.71-.37.72-.53.87-1.08,1.47-.28.3-.1.81-.76.66v.33c.58-.05.43.66-.05.89-.53.25-1.07-.28-1.62.12.05-.6-.66-1.21-1.17-.59l.5.08-.5.58.53.73c.21.13,1.15-.44.98.1-.03.09-.48.26-.68.5-.44.53-.11.95-1.17.76.2.65-.06,1.29-.5,1.76l.83.25c-.21.46-.45.85-.17,1.33h-2.17c.29.63-.17,1.04-.67.5-.04,1.1.96.53,1.35.74.38,1.3-1.1,1.33-1.84,1.85l.32.5-.66.34.16.58-.83-.33c-.16.45.27,1.22.15,1.57-.07.21-.39.22-.45.31-.12.2-.26,2.01-.71.55l.5-.08-.57-.34-.43.34.47,1.06-.75.68.28.93c-.83-.16-1.18.17-1.84.51l.27.51c-.35.48-.54.42-.59,1.08l-.67.08-.09,1.17c-.33.33-.68.39-1.09.17.06.31.27.44-.08.66l-.59-.16.5.83-.83-.5v.84c-.63-.28-.89.31-.95.33-1,.25-1.36-.61-2.23-.33-.05-.76.28-2.02,1.17-2.01l-.17-.5,1.34.5-.82-.94c-.12-.45.58-.67.6-.8.03-.21-.17-.48-.05-.95.07-.27,1.09-1.49,1.25-1.76.28-.48.5-1.28.78-1.73.28-.45.79-.17.41-1.16.81.04,1.17-.62,1-1.34l.47-.03c.1-.09.06-.77.2-1.02.16-.29.71-.17.33-.8l.5.17-.33-.67h1s-.17-.5-.17-.5h.5c-.28-1.16,0-.64.34-1.08.3-.39.44-1.08.68-1.5.13-.23.46-.28.56-.45.12-.19.03-.5.12-.62.08-.1.95-.43,1.13-.2l-.17-1,1.34.33-1-.83,1,.16-.46-.89c.24-.51.35-.74.96-.62l-.33-.5c.49-.13.83-1.19,1.07-1.63.03-.05.26-.08.33-.25.07-.2.09-1.22.15-1.27.16-.13.99-.28,1.09-.41.21-.26-.31-.63.61-.29l.19-.17-.09-1.67c.93.15,1.18-.75,1.98-1.03l-.3-.89.16-.17c.32-.27.81-.17.97-.28.23-.17-.04-.89.87-.64l-.17-.33.84.08c.39.31-.23.33-.3.45ZM435.98,195.93c-.09-.33-.36-.38-.67-.33.09.33.36.38.67.33ZM432.14,199.61l-.42-.5-.25.25v.25s.67,0,.67,0ZM431.13,200.78c.04-.45-.43-.73-.83-.67l.83.67ZM422.6,213.16c-.97.14-.31.83.34.83l-.34-.83Z"/>
        <path class="cls-1" d="M191.49,184.9l.33-.33c-.18.18.13,1.13.18,1.16.03.02.3-.2.49-.09.09.06.53.73.5.84-.74.34-1.22,1.09-2,.93l.34.25-.2.39c-1.22.42-2.92-.13-3.99.28-.51.19-.55.87-1.16.76l.33.5-.67.17c.1-.29.16-.78-.33-.67l.17.67h-2.01s.02.42.02.42c-.47-.14-.75.41-.8.42-.28.03-1.64.04-1.87.2-.09.06-.1.41-.26.43-.2.03-.83-.35-1.16-.31-.11.02-.09.31-.22.34-.5.12-1.32-.07-1.89.17l.33.5c-.23.2-2.22-.24-2.67-.33l.31.19-.13.3.66.34c-.83-.03-2.35.67-3.06.5-.09-.02-.3-.67-1.12-.16-.04.28.49.22.5.42,0,.1-.54.8-.83.59l.17.5h-.67s.33-.42.33-.42c-.31-.14-.39-.21-.34-.58l-1.17.34c.55.34.79.73,1.17,1.25l-1,.17.83.34-.67.41.34.1-.18.4h.51s-.18,1.08-.18,1.08c.73.09.52.49.85,1.01-.63.3-.25-.84-.92-.58-.28.11-.08.47-.1.49l-.48.26.75.75.33-.34.39.03c.08.27.73,1.38.9,1.45.24.1,1.21-.43,1.62.64l-.32.73h-.33s.17-.5.17-.5l-.83.34c-.13.56.58.34.84.58l-.84.25.09.51c-.17.4-1.26.49-1.63.3-.16-.08-.96-.99-.96-1.06,0-.19.68-.14.5-.58-.94-.03-1.7.08-2-.92,1.1-.86.27-.97-.5-.25l.18-.58-.35-.43h.5s-.34-.84-.34-.84l-.67.83c-.58-.94-.49-1.8-.69-2.73-.03-.13-.28-.1-.31-.23-.09-.38-.34-2.87-.17-3.06l.67.33c-.02-.83.66-.94,1.26-.51l.18-.34-.26-.66.42.31,1.09-.73-.91-.24-.1.58-.33.08.02-.82c.64.09.49-.68,1.15-.52l-.17.5s.91-.17.96-.21c.58-.42-.22-.66-.13-1.04.05-.21.86-.35.97-.45.05-.04-.16-.36.12-.47.19.65,1.08.15,1.67.5l-.08-.34h.73c.41-.93.38.25.77,0,.04-.03.21-.48.64-.57l-.3-.93c1.06-.14.37,1.33,1.51,1l-.33-.83c.92-.53,1.73-.21,2.6-.33.3-.04.49-.23.66-.25.44-.06,1.18.05,1.64-.12.58-.21.35-1.96.94-.72-.48.24-.62.54-.66,1.08h.5c-.06-.82.72-1.47,1.5-1.67v.51s.84-.17.84-.17v-.82c.38-.12.79.15,1.1.14.56,0,2.39-.55,1.32.52-.18-.69-.91-.16-1.42-.17-.32.36.96.61,1.09.6.16-.02.59-.4.96-.49.23-.06.61.08.63.05.35-.34-.42-.27-.33-.5h.83s-.5-.17-.5-.17v-.67s.84,0,.84,0l-.33.5.75.34c.13-.77,1.36.2,1.84.17l.09-.51.67.17v-.5s-.5.09-.5.09c-.57-1.22.44-.17.84-.26ZM191.32,186.9l-.67.17v.16s.67,0,.67,0v-.33ZM180.95,189.75l.09-.67-.76-.16c-.12.11.3.98.67.83ZM178.28,189.58l-.56-.17-.61.59,1,.42.17-.83ZM177.94,190.58c-.3-.02-.71.19-.84.5.38.06.7-.15.84-.5ZM171.58,192.1l-1.16-.18.5.17-.5.83.5-.5.67.17v-.49ZM169.75,192.93c-.9-.32-.5-.16-.68.2-.12.23-.38.04-.33.3.4.03,1.04.1,1-.5ZM171.59,193.59l-.25-.33-.41.25.67.08ZM166.74,193.93h-.33s-.17.67-.17.67h.33s.17-.67.17-.67ZM168.24,198.44l-.5-.5v.5s.5,0,.5,0ZM170.75,199.95h-.5v.33h.5v-.33ZM172.76,201.45c.09-.43-.64-.95-.83-.42-.02.04.65.58.83.42Z"/>
        <path class="cls-1" d="M421.26,218.18l-1.65.19c-.29.45.32,1.2.29,1.37-.02.14-.31.38-.39.61-.1.26-.12.73-.24.9-.13.19-1.26.59-1.32.64-.08.07-.03.39-.2.55-.23.21-2.25.38-1.2,1.04.58.36.26.34.52.65.65.79,2.14-.64,2.61.74l.5-.34c.54.5,1.14.22,1.65.34.13.03.1.33.22.34.5.06,1.64-.48,2.23-.17l.02-.82c.18-.02.39-.1.57-.1.33.01.5.07.42.42l-.5.33,1.17.17.02-.81c1.58-.39,2.91.88,4.39.49l.27.66c.5-.05.49-.43,1.08-.51,1.19-.16,2.53.48,3.55.47.23,0,.4-.25.65-.28,1.12-.15,2.31-.37,3.41-.27l-1.17.67.33.75c-.16.1-1.14-.14-1.45-.11-1.9.16-1.26.1-2.99-.21-.63-.11-1.42.06-2.08,0-.07.07.48,1.25.58,1.34.33.31.86-.07.75.5-.99-.13-1.96.13-2.92.18-1.8.09-3.88.17-5.69,0-.31-.03-.61-.15-.92-.17l.5-.17v-.5c-.35-.08-.74.2-1.05.13-.23-.05-.44-.39-.73-.43-.75-.09-.88.49-1.05,1.06-.22.17-2.43-.14-2.73-.3-.32-.16-.4-.65-.78-.73-.24-.05-.54.53-1.34,0-.17-.11-.11-.4-.26-.41-.43,0-.43.38-.25.67-1.17-.28-1.64.96-2.73.67-.22-.06-.15-.72-.95-.34.04-.39-.07-.84,0-1.22.03-.14.56-.4.61-.5.29-.67.52-1.24.85-1.92.19-.39-.17-.94.71-.88-.18-.78.78-2.15,1.68-2.17l-.32-.65c.86-.23.78-1.15,1.09-1.68.39-.67,1.66-.89,1.07-1.85.05-.07,1.38-.14,1.5-.09.11.05,1.86,1.6,1.68,1.76ZM431.63,227.37l.18-.75-.17-.34-2.51-.41c.29,1.55,1.22.71,1.73.85.18.05.39.67.77.65ZM429.12,226.54h-.25c-.52.38-.12.75.41.67l-.17-.67ZM427.79,226.87h-.5s0,.5,0,.5h.5s0-.5,0-.5Z"/>
        <path class="cls-1" d="M216.57,188.07s.05.23-.01.32l-.58-.11-.25.45,1.17.25-.48.28.14.31h-.84s.17.67.17.67h-1s.33.67.33.67l-1-1c.21.54-.04.74-.34,1.17.47.17.64.41,1.17.17-.59.99-1.17.4-1.76-.17-.12.44-.36.24-.75.34.04,1.02.55.72.85,1.07.4.45-.16,1.18-.44,1.61l-.33-.33-.59.58.32.15-.18.73c-.74.13-1.15-.31-1.33.86l-1.07.04-.17.48c-.55.05-.08-.7-.09-.94-.02-.8-.78-.13-.92-.12-.2.01-.46-.36-.75-.28l1,1.09c-.34.14-1.49.74-1.48,1.13.02.51.52,1.19.81.46l-.33-.17.33-.34-.33-.08c.27-.19.51-.83.83-.34l-.34.5c.5.15.34.45.34.92l-1,.17c-.16.7.74.05.84.17v.5s-1.34,0-1.34,0l.17.67-1.17.17.33-.42-.67-.5.5-.5-.5-.25-.16.6c-.26.18-.77,0-1.08.07-.17.03,0,.5-.44.34.07-.68.32-1.74,1.17-1.51l-.17-.67c.56.17,1.03-.87.87-1.31l1.14-.61-.67-.25c.87.14,1.44-.86.84-1.5,1.05-.15,1.66-1.57,2.84-1.51l-.38-.16c-.46-.37.25-.35.45-.51.27-.21.2-.52.31-.62.08-.08.34,0,.41-.07.16-.15.09-.74.25-.93.03-.03.63-.47.68-.49.26-.16.67.15.79-.55l-.5-.17h1s-.5-.84-.5-.84l.67.17v-1c.67-.08-.02.72.84.5-.34-.64.12-.44.16-.61.06-.22-.12-.91.15-1.3l.69-.1-.17-.83.41.35,1.43-.35-.33-.5,1,.17-.17-.5c1.63-.5,2.05.55,1.67,2.01l-.66-.17c.05.27-.34,1.24-.59,1.34l-.42-.5v1.17c-.34-.1-.66.24-.84.5v-.33s-.5-.17-.5-.17c-.06.31.18.55.5.5ZM218.06,185.71l-.06-.48c-.2.22-.49.35-.42.67l.48-.19ZM215.74,188.08l-1,.08c.29.41.61.18,1,.08v-.16ZM214.23,189.58c.05-.3-.18-.55-.5-.5v.5s.5,0,.5,0ZM214.06,190.25l-.67.17v.16s.67,0,.67,0v-.33ZM212.56,190.75l-.81.19.23.64.58-.83ZM211.56,193.93h-.5c0,.61.5.61.5,0ZM210.89,194.43c-.23-.08-1.05.23-.83.33.23.08,1.05-.23.83-.33ZM207.21,198.61h-.5v.33h.5v-.33Z"/>
        <path class="cls-1" d="M180.45,204.8l-.33.5.67.17-.17.5,1.09-.31.33.65c.24-.67.48-.44.34.16l1.42.17-.17.33c.75-.17.43.47.69.98l1.82-.14-.17.5c.53-.33.66.22,1.16.36l-.15.64h1.67s-.5.75-.5.75l.33-.08v.33s-.33.08-.33.08l.68,1.16c-.37.16-1.09,1.15-.55,1.43.48.25,1.66-.05,1.72.25.06.36-.45.45-.61.64-.1.11-.07.36-.22.52-.56.58-1.75.47-1.34-.56l-.66-.2c.01-.2.14-.4.05-.61-.16-.38-.6-.24-.55-.63.22-.57,1.6-.1.75-1.09l-1.17,1c-.57-.64-1.24-1.47-2.09-1.68l.17-.66-.67-.17-.09.5c-.99-.34-1.02-.42-.92-1.51l-.5.17v-.5s-1.42.33-1.42.33l-.09-.66-.5.17c.02-.56-.27-.86-.84-.84l.42-.66.58.5c.05-.35,0-.44-.27-.65-.65-.5-.53.07-.73.22-.26.19-.5.16-.71.27-.18.1-.24.71-.79.07.47-.48.53-.8.16-1.34l.34-.09-.33-.33c.55.1,2.02.17,1.84-.67l-.5-.17,1.17.17ZM181.12,206.3h-.5s0,.33,0,.33l.5.17v-.5ZM183.8,207.48c-.42-.2-.29.34-.44.35-.4.03-.96-.47-1.07.49l.58-.33c.28.66.59.53,1.25.5l-.67-.17.33-.83ZM182.12,208.14l-.27-.48-.9.4.6-.07.11.28.47-.12Z"/>
        <path class="cls-1" d="M337.48,224.87c.14.86-.51,1.5-.91,2.19l-1.26.07.5.17-.26.92c.05.09.04.24.13.3.35.24.61-.23.46,1.03-.04.05-.35-.15-.51-.08-.37.16-.32.82-.66.92.08-.24-.18-.96-.14-1.08.02-.06.57-.45.45-.99-.61-.66-1.35-.06-1.32.74l.59-.16.08.33c-1.12-.23-.71.86,0,.17.1.61-.79.28-.68.87-.21.53-.73-.65-.75-.86-.03-.29.34-1.08.76-.85v-.25c-.62.07-.51-1.48-.43-1.59.17-.24.71-.21.97-.35.3-.16.52-.74.98-.89.48-.17,1.13-.1,1.54-.27.2-.08,0-.47.46-.33Z"/>
        <path class="cls-1" d="M174.62,203.11l.46-.14c.03.63.66.34.84.51.03.03-.04.69.24.94.14.13.49.05.62.3-.25.43-.51.02-.89.07-.1.01-.17.49-.55.48-.23,0-.38-.24-.5-.25-.59-.03-1.02.5-1.23-.39l1,.16-.5-.75.67-.59h-1.51s.17-.33.17-.33c-.3,0-.74-.07-.67-.5.65.09,1.69-.34,1.86.48Z"/>
        <path class="cls-1" d="M188.98,221.52l-.33-1.17c-.06.69-.73.54-1.16.76-.24.13-.36.47-.63.54-.18.05-.44-.14-.56-.06-.15.1-.06.48-.32.42-.08-.55.03-.7.5-.92l-.5-.42c.61.37,1.18-.07,1.84,0l-.16-.41,1.41-.59c.41.25.1.54.1.9,0,.33.38.74-.18.94Z"/>
        <path class="cls-1" d="M189.48,216.84c.13.48-.36.24-.43.66-.04.24.14.59.08.66l-.31.19c.62-.08,1.17-.68,1.5.25-.23.38-.51.02-.83.16-.3.14-.25.55-.85.26l.17-.33-1.17.33c.15-.69.7-.25.33-1.17l.65-.27-.15-.74h1Z"/>
        <path class="cls-1" d="M228.95,224.53c.07.06.11,1.43.09,1.59-.02.15-.22.71-.42.47-.48-.61-.94.17-1.43.11-.4-.05.04-.77.11-.82.08-.05.77.43,1.19-.57.03-.06,0-1.15.46-.79Z"/>
        <path class="cls-1" d="M216.41,223.19l-1,.59.42.08.08.33c-.81.24-1.39-.48-2.34,0l.92-.83.66.35c.35-.71.51-.71,1.26-.51Z"/>
        <polygon class="cls-1" points="229.45 181.89 229.45 182.89 228.78 182.56 228.7 183.06 228.45 182.47 227.95 182.56 227.95 181.72 229.45 181.89"/>
        <path class="cls-1" d="M207.04,200.95c-.31.07,0-.48-.41-.33-.38.14-.01.75-.09,1l-.67-.5-.34.67.17-1.5,1.09.06.25.61Z"/>
        <path class="cls-1" d="M306.04,219.68l-.17,1,.5.17-1.67.17c-.11-.68.7-.21.83-.59-.34-.22-.6-.23-.5-.75h1Z"/>
        <path class="cls-1" d="M227.27,229.54h-.49c.09-.58-.15-.98-.5-1.42l.75-.58c-.14.8.56,1.31.24,2Z"/>
        <path class="cls-1" d="M309.94,220.46c.22.11.5.08.72.21.44-.9,1.11.23.04.31-.74.06-1.8.16-.89-.79.14-.06.03.22.13.28Z"/>
        <path class="cls-1" d="M308.55,220.52c-.07.93-1.12.28-1.67.33v-.83c.76.21.72.9,1.67.5Z"/>
        <path class="cls-1" d="M299.81,219.74s.04.2.09.23c.3.17.74-.17.62.39-.67.13-1.17.11-1.67-.42.22-.31.64-.34.95-.2Z"/>
        <path class="cls-1" d="M190.78,216.55s.03.17.07.24l.3-.12-.17.84-.59-.16.09-.5-.5.33c-.22-.49.45-.8.8-.62Z"/>
        <path class="cls-1" d="M359.56,228.21l-.43.33.09.49-.74.3-.42-.37c.15-.23.66-.14.8-.29.16-.17-.23-.64.7-.46Z"/>
        <polygon class="cls-1" points="226.94 231.72 227.36 230.55 227.7 231.39 226.94 231.72"/>
        <polygon class="cls-1" points="198.34 232.22 198.17 231.9 197.68 232.06 197.68 231.22 198.01 231.55 198.35 231.05 198.68 231.3 198.34 232.22"/>
        <polygon class="cls-1" points="292.5 181.72 293.66 181.8 292.75 182.39 292.5 181.72"/>
        <path class="cls-1" d="M168.2,221.9c.05.02.74.67.88.79-.65.08-1.2-.28-1.51-.83.22,0,.42-.04.63.05Z"/>
        <polygon class="cls-1" points="239.65 220.69 239.75 221.03 240.32 220.85 240.15 221.52 239.34 221.33 239.32 220.77 239.65 220.69"/>
        <polygon class="cls-1" points="263.07 233.56 263.07 234.06 262.06 234.23 262.26 233.59 263.07 233.56"/>
        <rect class="cls-1" x="186.18" y="219.87" width="1.11" height=".49" transform="translate(-92.74 147.89) rotate(-35.2)"/>
        <path class="cls-1" d="M297.85,219.18c.03.25-.09.6.04.81.06.09.36-.08.29.19l-1-.25c.63-.07.02-.84.67-.75Z"/>
        <path class="cls-1" d="M228.78,228.21c.16.65-.43.56-.83.84l.02-.64.81-.19Z"/>
        <path class="cls-1" d="M296.34,218.84c0,.44.17,1.19-.5,1.17.06-.58.53-.65,0-1.17h.5Z"/>
        <path class="cls-1" d="M190.32,216c.12.68-.7.1-1.05.16l-.12-.5c.36.22.73.38,1.17.34Z"/>
        <polygon class="cls-1" points="188.65 215.5 188.81 215.92 187.98 216.17 187.98 215.92 188.65 215.5"/>
        <polygon class="cls-1" points="173.76 204.29 172.93 204.29 173.1 203.63 173.76 204.29"/>
        <polygon class="cls-1" points="189.65 214.83 190.07 214.17 190.48 214.58 189.65 214.83"/>
        <polygon class="cls-1" points="190.82 219.85 190.24 219.85 190.15 219.35 190.82 219.18 190.82 219.85"/>
        <polygon class="cls-1" points="301.86 220.18 301.7 220.61 301.03 220.52 301.03 220.18 301.86 220.18"/>
        <polygon class="cls-1" points="333.8 232.22 333.14 232.56 333.14 231.89 333.8 232.22"/>
        <path class="cls-1" d="M200.02,180.88c.04.63-.13.7-.67.5l.19-.48.48-.02Z"/>
        <rect class="cls-1" x="302.47" y="219.94" width=".29" height="1.15" transform="translate(28.19 475.27) rotate(-78.95)"/>
        <path class="cls-1" d="M351.7,223.03c.18.02.42-.04.58,0,.58.17-.17.95-.58,0Z"/>
        <rect class="cls-1" x="358.47" y="224.61" width=".84" height=".34" transform="translate(133.69 583.41) rotate(-89.93)"/>
        <path class="cls-1" d="M244.67,207.14l-.83-.58c.36-.55.65.38.83.58Z"/>
        <path class="cls-1" d="M176.1,205.64l-.42.5c-.26.06-.48-.28-.41-.5h.83Z"/>
        <path class="cls-1" d="M201.52,185.56c-.1-.13.1-.4.25-.5l.41.41c-.05.28-.6.16-.66.08Z"/>
        <polygon class="cls-1" points="239.82 231.39 239.74 232.06 239.32 231.64 239.32 231.39 239.82 231.39"/>
        <path class="cls-1" d="M310.56,219.68h-.33s.17-.83.17-.83h.16c.11.31.1.53,0,.83Z"/>
        <path class="cls-1" d="M177.11,187.57c-.04-.25.42-.22.58-.5l.25.25c-.21.31-.48.27-.83.25Z"/>
        <polygon class="cls-1" points="325.95 186.23 325.78 185.74 326.19 185.57 326.44 185.82 325.95 186.23"/>
        <rect class="cls-1" x="352.87" y="197.77" width=".34" height=".67" transform="translate(154.13 550.69) rotate(-89.87)"/>
        <polygon class="cls-1" points="177.27 206.47 176.86 206.97 176.61 206.72 176.61 206.47 177.27 206.47"/>
        <path class="cls-1" d="M261.39,233.73v.25s-.5.42-.5.42c-.07-.4.08-.71.5-.67Z"/>
        <path class="cls-1" d="M205.01,199.97l-.06.48c-.2-.22-.49-.35-.42-.67l.48.19Z"/>
        <polygon class="cls-1" points="197.84 181.89 197.59 182.22 197.18 181.97 197.43 181.72 197.84 181.89"/>
        <path class="cls-1" d="M185.3,207.48c-.09.33-.36.38-.67.33v-.33s.67,0,.67,0Z"/>
        <polygon class="cls-1" points="262.73 230.72 262.73 231.05 262.23 231.22 262.23 230.72 262.73 230.72"/>
        <polygon class="cls-1" points="172.42 188.74 172.59 189.24 171.92 189.08 172.18 188.75 172.42 188.74"/>
        <path class="cls-1" d="M439.33,226.7v-.5c.61,0,.61.5,0,.5Z"/>
        <path class="cls-1" d="M172.26,223.69h-.67s0-.33,0-.33c.31-.04.58,0,.67.33Z"/>
        <path class="cls-1" d="M304.04,220.35v.33c-.31.04-.49,0-.67-.25l.67-.08Z"/>
        <polygon class="cls-1" points="271.59 196.6 271.26 196.6 271.26 195.94 271.42 195.94 271.59 196.6"/>
        <polygon class="cls-1" points="188.81 221.52 188.15 221.44 188.56 221.19 188.81 221.52"/>
        <polygon class="cls-1" points="334.81 225.37 334.81 225.7 334.14 225.53 334.14 225.37 334.81 225.37"/>
        <rect class="cls-1" x="344.67" y="214.33" width=".33" height=".5"/>
        <polygon class="cls-1" points="186.97 218.68 186.97 218.84 186.31 219.01 186.31 218.68 186.97 218.68"/>
        <polygon class="cls-1" points="326.61 218.18 326.61 218.68 326.11 218.68 326.28 218.18 326.61 218.18"/>
        <path class="cls-1" d="M273.6,203.46v.16c-.37-.06-.36.18-.34.5h-.16s0-.67,0-.67h.5Z"/>
        <path class="cls-1" d="M398.19,226.87l.17.5c-.27.21-.9-.63-.17-.5Z"/>
        <rect class="cls-1" x="202.53" y="208.14" width=".5" height=".33"/>
        <rect class="cls-1" x="353.2" y="198.95" width=".5" height=".33"/>
        <path class="cls-1" d="M327.62,217.84c-.04-.31,0-.58.33-.67.04.31,0,.58-.33.67Z"/>
        <path d="M370.59,215.67l-.25.67-.25-.41c.15-.18.25-.31.5-.25Z"/>
        <polygon points="376.11 192.93 376.11 193.26 375.86 193.26 375.44 192.76 376.11 192.93"/>
        <rect x="370.26" y="212.32" width=".33" height=".5"/>
        <path d="M242.83,181.72l-.33.34c-.07.29.26.11.32.18.03.03-.2.97-.49.65l.09-.51c-.09-.16-.72.04-.59-.49l1-.17Z"/>
        <polygon points="242.79 214.53 243.33 215.17 242.16 214.75 242.79 214.53"/>
        <path d="M243.08,210.23c.12.17.38.12.25.58-.31-.12-.54-.42-.5-.75.15-.25.17.06.25.17Z"/>
        <polygon points="241.16 203.29 240.82 203.79 240.49 203.54 240.49 203.29 241.16 203.29"/>
        <rect x="241.16" y="211.32" width=".5" height=".33"/>
        <polygon points="254.03 190.08 253.37 189.83 253.62 189.58 254.03 190.08"/>
        <rect x="244.5" y="189.3" width=".3" height=".82" transform="translate(-59.1 129.85) rotate(-26.64)"/>
        <rect x="241.83" y="210.99" width=".33" height=".5"/>
        <rect x="242.02" y="183.14" width=".69" height=".33" transform="translate(-37.57 65.08) rotate(-14.21)"/>
        <path d="M343.33,211.82l-.08.33h-1.42s.26-.68.26-.68c.49-.09.81.22,1.24.35Z"/>
        <path d="M343,210.99c.12.66-.67.19-1,.16l1-.16Z"/>
        <polygon points="346.34 204.63 346.34 205.3 346.01 205.3 345.85 204.88 346.1 204.63 346.34 204.63"/>
        <path d="M350.19,202.12c-.69-.05-.59-.47-.08-.83l.08.83Z"/>
        <path d="M345.01,203.29v.5s-.67-.17-.67-.17c.09-.33.36-.38.67-.33Z"/>
        <path d="M345.34,210.65c-.38-.1-.35-.52-.33-.84.38.1.35.52.33.84Z"/>
        <polygon points="344.17 208.48 344.17 209.14 343.67 209.14 343.84 208.48 344.17 208.48"/>
        <rect x="343.67" y="202.62" width=".5" height=".33"/>
        <path d="M351.7,221.69c-.33-.09-.38-.36-.33-.67.33.09.38.36.33.67Z"/>
        <polygon points="346.85 197.44 346.35 197.61 346.35 197.11 346.59 197.11 346.85 197.44"/>
        <polygon points="349.86 203.96 349.52 203.71 349.77 203.29 349.86 203.96"/>
        <path d="M353.37,217.51h-.33s-.17-.5-.17-.5c.31-.06.55.18.5.5Z"/>
        <polygon points="348.85 183.06 348.85 183.56 348.35 183.39 348.35 183.06 348.85 183.06"/>
        <path d="M204.87,202.63c.03.2-.86.34-.91.33-.05,0-.23-.54-.76-.42.51-.58,1.13-.05,1.67.08Z"/>
        <polygon points="209.72 219.01 209.72 219.26 209.39 219.51 209.22 218.85 209.72 219.01"/>
        <rect x="207.21" y="216.5" width=".5" height=".33"/>
        <polygon points="272.43 190.58 272.24 191.06 271.76 191.08 271.95 190.6 272.43 190.58"/>
        <polygon points="272.09 207.14 271.59 207.06 272.09 206.64 272.09 207.14"/>
        <path d="M316.05,219.04l.19.81h-.67s.17-.33.17-.33l-1-.34c.18-.52.91-.07,1.31-.14Z"/>
        <path d="M313.23,194.26c0-.11,0-.22,0-.33l.5.17v.33c-.23.06-.35-.12-.5-.17.01.23.08.43.14.64-.28-.07-.57.8-.81.53-.23-.27.74-.83.17-1.34.25-.08.35.11.5.17Z"/>
        <path d="M330.79,211.32c.13.18-.91.59-1,.5l.17-.83.83.34Z"/>
        <path d="M319.56,219.04l.02.81h-.5c0-.21.14-.42.06-.63-.1-.27-.43-.1-.39-.37l.81.19Z"/>
        <polygon points="323.1 218.68 322.27 219.35 322.77 219.01 322.64 218.76 323.1 218.68"/>
        <path d="M318.75,191.75c-.27.07-.62.16-.83-.08l.58-.42c.18.15.31.25.25.5Z"/>
        <polygon points="331.13 211.99 331.13 212.32 330.13 212.32 330.13 212.16 331.13 211.99"/>
        <path d="M321.09,189.75l-.34.5c-.44.09-.34-.1-.33-.5h.67Z"/>
        <path d="M323.1,187.74l.17-.67h.16s.16.42.16.42c-.15.18-.25.3-.5.25Z"/>
        <path d="M328.95,187.74c-.42.04-.57-.27-.5-.67l.5.67Z"/>
        <path d="M315.74,192.09c.25-.25.71.5.25.5-.11,0-.35-.4-.25-.5Z"/>
        <polygon points="333.3 185.73 333.38 185.07 333.64 185.48 333.3 185.73"/>
        <path d="M328.29,215.5c.25-.25.71.5.25.5-.11,0-.35-.4-.25-.5Z"/>
        <path d="M403.58,198.4c.19.16.78.04.79.37-.73,0-1.17-.33-1.81.2l.14.31h-.84c-.22-.44.34-.54.33-.58-.02-.13-.38-.71-.33-.76l1.24-.32c.32.08.31.63.48.77Z"/>
        <path d="M399.19,201.46v.5s-.67-.17-.67-.17l-.19.81c-.37.14-1,.04-.97-.4,0-.12.44-.25.56-.42.05-.08-.07-.29-.05-.31.25-.21.99-.08,1.31-.02Z"/>
        <path d="M396.85,204.97c-.06.93-.95.79,0,1.67-1.43,1.03-.79-.71-.69-1.57l.69-.1Z"/>
        <path d="M397.18,203.96c-.22.24-.61-.31-.33-.67.28,0,.44.55.33.67Z"/>
        <path d="M398.19,202.96v.5c-.61,0-.61-.5,0-.5Z"/>
        <path d="M411.73,214.33c-.31.04-.58,0-.67-.33.31-.04.58,0,.67.33Z"/>
        <polygon points="229.62 199.78 229.28 200.62 228.78 200.28 228.45 200.62 228.45 199.78 229.62 199.78"/>
        <path d="M229.12,203.29c.1.11-.45,1.11-.67.83v-.84s.67,0,.67,0Z"/>
        <path d="M229.45,191.59c-.17.17-1.01-.02-.67-.5.28-.39.97.19.67.5Z"/>
        <polygon points="228.11 220.52 227.55 220.01 227.7 219.52 228.11 220.52"/>
        <path d="M227.44,223.86c-.1.38-.52.35-.84.33,0-.62.37-.48.84-.33Z"/>
        <path d="M227.28,199.61c-.03-.23.44-.21.66-.26.2-.05.2-.43.51.01l-1.17.25Z"/>
        <rect x="229.72" y="189.27" width=".36" height=".74" transform="translate(-5.8 372.03) rotate(-77.25)"/>
        <polygon points="228.95 204.46 228.95 204.96 228.28 204.8 228.28 204.63 228.95 204.46"/>
        <path d="M228.78,183.9l-.25.5c-.2-.22-.49-.35-.42-.67l.67.17Z"/>
        <path d="M229.45,193.26c-.17.17-.67-.33-.5-.5.17-.17.67.33.5.5Z"/>
        <path d="M230.79,193.09l-.5-.17v-.33c.32-.05.56.2.5.5Z"/>
        <rect x="227.95" y="205.8" width=".5" height=".33"/>
        <path d="M422.6,213.16l.34.83c-.64,0-1.3-.69-.34-.83Z"/>
        <path d="M431.13,200.78l-.83-.67c.4-.07.87.21.83.67Z"/>
        <polygon points="432.14 199.61 431.47 199.61 431.47 199.37 431.72 199.12 432.14 199.61"/>
        <path d="M435.98,195.93c-.31.04-.58,0-.67-.33.31-.04.58,0,.67.33Z"/>
        <polygon points="178.28 189.58 178.11 190.42 177.11 190 177.72 189.41 178.28 189.58"/>
        <polygon points="171.58 192.1 171.59 192.59 170.92 192.42 170.42 192.92 170.92 192.09 170.42 191.92 171.58 192.1"/>
        <path d="M180.95,189.75c-.37.15-.79-.73-.67-.83l.76.16-.09.67Z"/>
        <path d="M169.75,192.93c.04.6-.61.53-1,.5-.06-.26.21-.07.33-.3.18-.36-.22-.51.68-.2Z"/>
        <path d="M172.76,201.45c-.18.17-.85-.37-.83-.42.2-.54.92-.01.83.42Z"/>
        <path d="M177.94,190.58c-.13.35-.46.56-.84.5.12-.31.54-.52.84-.5Z"/>
        <polygon points="166.74 193.93 166.57 194.6 166.24 194.59 166.41 193.93 166.74 193.93"/>
        <polygon points="171.59 193.59 170.92 193.51 171.34 193.26 171.59 193.59"/>
        <polygon points="168.24 198.44 167.74 198.44 167.74 197.94 168.24 198.44"/>
        <rect x="170.25" y="199.95" width=".5" height=".33"/>
        <polygon points="191.32 186.9 191.32 187.24 190.65 187.24 190.65 187.07 191.32 186.9"/>
        <path d="M431.63,227.37c-.39.02-.6-.6-.77-.65-.51-.14-1.44.7-1.73-.85l2.51.41.17.34-.18.75Z"/>
        <path d="M429.12,226.54l.17.67c-.54.08-.93-.29-.41-.67h.25Z"/>
        <rect x="427.29" y="226.87" width=".5" height=".5" transform="translate(-.81 1.53) rotate(-.21)"/>
        <polygon points="212.56 190.75 211.98 191.59 211.74 190.94 212.56 190.75"/>
        <path d="M215.74,188.08v.16c-.39.1-.71.33-1-.08l1-.08Z"/>
        <path d="M214.23,189.58h-.5s0-.5,0-.5c.32-.05.55.2.5.5Z"/>
        <path d="M218.06,185.71l-.48.19c-.07-.32.21-.45.42-.67l.06.48Z"/>
        <path d="M211.56,193.93c0,.61-.5.61-.5,0h.5Z"/>
        <polygon points="214.06 190.25 214.06 190.58 213.4 190.58 213.4 190.42 214.06 190.25"/>
        <rect x="206.71" y="198.61" width=".5" height=".33"/>
        <path d="M210.89,194.43c.21.1-.6.41-.83.33-.21-.1.6-.41.83-.33Z"/>
        <path d="M183.8,207.48l-.33.83.67.17c-.66.03-.97.16-1.25-.5l-.58.33c.11-.96.67-.46,1.07-.49.15-.01.02-.55.44-.35Z"/>
        <polygon points="182.12 208.14 181.66 208.26 181.55 207.99 180.95 208.06 181.86 207.66 182.12 208.14"/>
        <polygon points="181.12 206.3 181.12 206.8 180.62 206.64 180.62 206.3 181.12 206.3"/>
      </g>
    </g>
  </g>
</svg>